<svg width="437" height="224" viewBox="0 0 437 224" fill="none" xmlns="http://www.w3.org/2000/svg">
<path d="M0 20C0 8.95431 8.95431 0 20 0H417C428.046 0 437 8.95431 437 20V204C437 215.046 428.046 224 417 224H20C8.95431 224 0 215.046 0 204V20Z" fill="url(#paint0_linear_871_12875)"/>
<g clip-path="url(#clip0_871_12875)">
<path d="M287.88 175.746L303.453 154.92L253.321 112L303.453 69.0798L287.88 48.2531L225.589 101.586C224.129 102.836 222.951 104.42 222.141 106.223C221.331 108.025 220.911 110 220.911 112C220.911 114 221.331 115.974 222.141 117.777C222.951 119.579 224.129 121.164 225.589 122.413L287.88 175.746ZM403.12 48.2531L387.547 69.0798L437.679 112L387.547 154.92L403.12 175.746L465.412 122.413C466.871 121.164 468.049 119.579 468.859 117.777C469.669 115.974 470.089 114 470.089 112C470.089 110 469.669 108.025 468.859 106.223C468.049 104.42 466.871 102.836 465.412 101.586L403.12 48.2531ZM382.576 -5.12019L332.743 234.88L308.412 229.093L358.245 -10.9069L382.576 -5.12019Z" fill="#6F9FE8" fill-opacity="0.4"/>
</g>
<path d="M14.008 208V185.6H23.8C26.232 185.6 28.3653 186.069 30.2 187.008C32.0347 187.947 33.464 189.248 34.488 190.912C35.512 192.576 36.024 194.539 36.024 196.8C36.024 199.04 35.512 201.003 34.488 202.688C33.464 204.352 32.0347 205.653 30.2 206.592C28.3653 207.531 26.232 208 23.8 208H14.008ZM18.168 204.48H23.608C25.2933 204.48 26.744 204.16 27.96 203.52C29.1973 202.88 30.1467 201.984 30.808 200.832C31.4907 199.68 31.832 198.336 31.832 196.8C31.832 195.243 31.4907 193.899 30.808 192.768C30.1467 191.616 29.1973 190.72 27.96 190.08C26.744 189.44 25.2933 189.12 23.608 189.12H18.168V204.48ZM47.1335 208.224C45.2348 208.224 43.5708 207.851 42.1415 207.104C40.7335 206.336 39.6348 205.291 38.8455 203.968C38.0775 202.645 37.6935 201.141 37.6935 199.456C37.6935 197.749 38.0668 196.245 38.8135 194.944C39.5815 193.621 40.6268 192.587 41.9495 191.84C43.2935 191.093 44.8188 190.72 46.5255 190.72C48.1895 190.72 49.6722 191.083 50.9735 191.808C52.2748 192.533 53.2988 193.557 54.0455 194.88C54.7922 196.203 55.1655 197.76 55.1655 199.552C55.1655 199.723 55.1548 199.915 55.1335 200.128C55.1335 200.341 55.1228 200.544 55.1015 200.736H40.8615V198.08H52.9895L51.4215 198.912C51.4428 197.931 51.2402 197.067 50.8135 196.32C50.3868 195.573 49.8002 194.987 49.0535 194.56C48.3282 194.133 47.4855 193.92 46.5255 193.92C45.5442 193.92 44.6802 194.133 43.9335 194.56C43.2082 194.987 42.6322 195.584 42.2055 196.352C41.8002 197.099 41.5975 197.984 41.5975 199.008V199.648C41.5975 200.672 41.8322 201.579 42.3015 202.368C42.7708 203.157 43.4322 203.765 44.2855 204.192C45.1388 204.619 46.1202 204.832 47.2295 204.832C48.1895 204.832 49.0535 204.683 49.8215 204.384C50.5895 204.085 51.2722 203.616 51.8695 202.976L54.0135 205.44C53.2455 206.336 52.2748 207.029 51.1015 207.52C49.9495 207.989 48.6268 208.224 47.1335 208.224ZM62.2793 208L54.9513 190.912H59.1113L65.4153 205.984H63.3673L69.8953 190.912H73.7353L66.4073 208H62.2793ZM87.351 195.904H98.519V199.424H87.351V195.904ZM87.703 208H83.543V185.6H99.895V189.088H87.703V208ZM109.337 208.224C107.887 208.224 106.607 207.957 105.497 207.424C104.388 206.869 103.524 206.037 102.905 204.928C102.287 203.797 101.977 202.379 101.977 200.672V190.912H105.977V200.128C105.977 201.664 106.319 202.816 107.001 203.584C107.705 204.331 108.697 204.704 109.977 204.704C110.916 204.704 111.727 204.512 112.409 204.128C113.113 203.744 113.657 203.168 114.041 202.4C114.447 201.632 114.649 200.683 114.649 199.552V190.912H118.649V208H114.841V203.392L115.513 204.8C114.937 205.909 114.095 206.763 112.985 207.36C111.876 207.936 110.66 208.224 109.337 208.224ZM122.926 208V184.256H126.926V208H122.926ZM131.216 208V184.256H135.216V208H131.216ZM154.718 208.32C152.969 208.32 151.294 208.075 149.694 207.584C148.094 207.072 146.825 206.421 145.886 205.632L147.326 202.4C148.222 203.104 149.332 203.691 150.654 204.16C151.977 204.629 153.332 204.864 154.718 204.864C155.892 204.864 156.841 204.736 157.566 204.48C158.292 204.224 158.825 203.883 159.166 203.456C159.508 203.008 159.678 202.507 159.678 201.952C159.678 201.269 159.433 200.725 158.942 200.32C158.452 199.893 157.812 199.563 157.022 199.328C156.254 199.072 155.39 198.837 154.43 198.624C153.492 198.411 152.542 198.165 151.582 197.888C150.644 197.589 149.78 197.216 148.99 196.768C148.222 196.299 147.593 195.68 147.102 194.912C146.612 194.144 146.366 193.163 146.366 191.968C146.366 190.752 146.686 189.643 147.326 188.64C147.988 187.616 148.98 186.805 150.302 186.208C151.646 185.589 153.342 185.28 155.39 185.28C156.734 185.28 158.068 185.451 159.39 185.792C160.713 186.133 161.865 186.624 162.846 187.264L161.534 190.496C160.532 189.899 159.497 189.461 158.43 189.184C157.364 188.885 156.34 188.736 155.358 188.736C154.206 188.736 153.268 188.875 152.542 189.152C151.838 189.429 151.316 189.792 150.974 190.24C150.654 190.688 150.494 191.2 150.494 191.776C150.494 192.459 150.729 193.013 151.198 193.44C151.689 193.845 152.318 194.165 153.086 194.4C153.876 194.635 154.75 194.869 155.71 195.104C156.67 195.317 157.62 195.563 158.558 195.84C159.518 196.117 160.382 196.48 161.15 196.928C161.94 197.376 162.569 197.984 163.038 198.752C163.529 199.52 163.774 200.491 163.774 201.664C163.774 202.859 163.444 203.968 162.782 204.992C162.142 205.995 161.15 206.805 159.806 207.424C158.462 208.021 156.766 208.32 154.718 208.32ZM172.987 208.224C171.11 208.224 169.659 207.744 168.635 206.784C167.611 205.803 167.099 204.363 167.099 202.464V187.136H171.099V202.368C171.099 203.179 171.302 203.808 171.707 204.256C172.134 204.704 172.721 204.928 173.467 204.928C174.363 204.928 175.11 204.693 175.707 204.224L176.827 207.072C176.358 207.456 175.782 207.744 175.099 207.936C174.417 208.128 173.713 208.224 172.987 208.224ZM164.283 194.24V191.04H175.675V194.24H164.283ZM189.686 208V204.544L189.462 203.808V197.76C189.462 196.587 189.11 195.68 188.406 195.04C187.702 194.379 186.635 194.048 185.206 194.048C184.246 194.048 183.296 194.197 182.358 194.496C181.44 194.795 180.662 195.211 180.022 195.744L178.454 192.832C179.371 192.128 180.459 191.605 181.718 191.264C182.998 190.901 184.32 190.72 185.686 190.72C188.16 190.72 190.07 191.317 191.414 192.512C192.779 193.685 193.462 195.509 193.462 197.984V208H189.686ZM184.31 208.224C183.03 208.224 181.91 208.011 180.95 207.584C179.99 207.136 179.243 206.528 178.71 205.76C178.198 204.971 177.942 204.085 177.942 203.104C177.942 202.144 178.166 201.28 178.614 200.512C179.083 199.744 179.84 199.136 180.886 198.688C181.931 198.24 183.318 198.016 185.046 198.016H190.006V200.672H185.334C183.968 200.672 183.051 200.896 182.582 201.344C182.112 201.771 181.878 202.304 181.878 202.944C181.878 203.669 182.166 204.245 182.742 204.672C183.318 205.099 184.118 205.312 185.142 205.312C186.123 205.312 186.998 205.088 187.766 204.64C188.555 204.192 189.12 203.531 189.462 202.656L190.134 205.056C189.75 206.059 189.056 206.837 188.054 207.392C187.072 207.947 185.824 208.224 184.31 208.224ZM205.506 208.224C203.714 208.224 202.114 207.851 200.706 207.104C199.32 206.336 198.232 205.291 197.442 203.968C196.653 202.645 196.258 201.141 196.258 199.456C196.258 197.749 196.653 196.245 197.442 194.944C198.232 193.621 199.32 192.587 200.706 191.84C202.114 191.093 203.714 190.72 205.506 190.72C207.17 190.72 208.632 191.061 209.89 191.744C211.17 192.405 212.141 193.387 212.802 194.688L209.73 196.48C209.218 195.669 208.589 195.072 207.842 194.688C207.117 194.304 206.328 194.112 205.474 194.112C204.493 194.112 203.608 194.325 202.818 194.752C202.029 195.179 201.41 195.797 200.962 196.608C200.514 197.397 200.29 198.347 200.29 199.456C200.29 200.565 200.514 201.525 200.962 202.336C201.41 203.125 202.029 203.733 202.818 204.16C203.608 204.587 204.493 204.8 205.474 204.8C206.328 204.8 207.117 204.608 207.842 204.224C208.589 203.84 209.218 203.243 209.73 202.432L212.802 204.224C212.141 205.504 211.17 206.496 209.89 207.2C208.632 207.883 207.17 208.224 205.506 208.224ZM218.408 204.192L218.504 199.168L227.432 190.912H232.232L224.648 198.528L222.536 200.288L218.408 204.192ZM215.144 208V184.256H219.144V208H215.144ZM228.04 208L221.8 200.288L224.328 197.088L232.904 208H228.04Z" fill="#FBFBFB"/>
<defs>
<linearGradient id="paint0_linear_871_12875" x1="478.652" y1="-34.5" x2="39.2872" y2="365.995" gradientUnits="userSpaceOnUse">
<stop stop-color="#4A7BFA"/>
<stop offset="1" stop-color="#0E2B77"/>
</linearGradient>
<clipPath id="clip0_871_12875">
<rect width="228" height="224" fill="white" transform="translate(209)"/>
</clipPath>
</defs>
</svg>
