<svg width="437" height="225" viewBox="0 0 437 225" fill="none" xmlns="http://www.w3.org/2000/svg">
<rect width="437" height="225" rx="20" fill="url(#paint0_linear_871_12862)"/>
<g clip-path="url(#clip0_871_12862)">
<path d="M250 28.3333C250 20.9583 255.738 15 262.841 15H288.523H314.205H339.887C346.99 15 352.728 20.9583 352.728 28.3333C352.728 35.7083 346.99 41.6667 339.887 41.6667V112.833C331.781 124.75 327.046 139.292 327.046 155C327.046 165.5 329.173 175.458 332.985 184.5C326.043 194.875 314.446 201.667 301.364 201.667C280.096 201.667 262.841 183.75 262.841 161.667V41.6667C255.738 41.6667 250 35.7083 250 28.3333ZM288.523 41.6667V81.6667H314.205V41.6667H288.523ZM455.456 155C455.456 188.125 429.574 215 397.672 215C365.77 215 339.887 188.125 339.887 155C339.887 121.875 365.77 95 397.672 95C429.574 95 455.456 121.875 455.456 155ZM424.678 136.958C422.19 134.375 418.097 134.375 415.609 136.958L391.251 162.25L379.734 150.292C377.247 147.708 373.153 147.708 370.666 150.292C368.178 152.875 368.178 157.125 370.666 159.708L386.717 176.375C389.205 178.958 393.298 178.958 395.786 176.375L424.678 146.375C427.166 143.792 427.166 139.542 424.678 136.958Z" fill="#8EE86F" fill-opacity="0.4"/>
</g>
<path d="M26.9659 161.182H30.7841L33.0455 164.114L34.6591 166.023L38.5341 171H34.4432L31.8068 167.659L30.6818 166.068L26.9659 161.182ZM39.0909 157.364C39.0909 159.871 38.6212 162.019 37.6818 163.807C36.75 165.587 35.4773 166.951 33.8636 167.898C32.2576 168.845 30.4356 169.318 28.3977 169.318C26.3598 169.318 24.5341 168.845 22.9205 167.898C21.3144 166.943 20.0417 165.576 19.1023 163.795C18.1705 162.008 17.7045 159.864 17.7045 157.364C17.7045 154.856 18.1705 152.712 19.1023 150.932C20.0417 149.144 21.3144 147.777 22.9205 146.83C24.5341 145.883 26.3598 145.409 28.3977 145.409C30.4356 145.409 32.2576 145.883 33.8636 146.83C35.4773 147.777 36.75 149.144 37.6818 150.932C38.6212 152.712 39.0909 154.856 39.0909 157.364ZM34.8523 157.364C34.8523 155.598 34.5758 154.11 34.0227 152.898C33.4773 151.678 32.7197 150.758 31.75 150.136C30.7803 149.508 29.6629 149.193 28.3977 149.193C27.1326 149.193 26.0152 149.508 25.0455 150.136C24.0758 150.758 23.3144 151.678 22.7614 152.898C22.2159 154.11 21.9432 155.598 21.9432 157.364C21.9432 159.129 22.2159 160.621 22.7614 161.841C23.3144 163.053 24.0758 163.973 25.0455 164.602C26.0152 165.223 27.1326 165.534 28.3977 165.534C29.6629 165.534 30.7803 165.223 31.75 164.602C32.7197 163.973 33.4773 163.053 34.0227 161.841C34.5758 160.621 34.8523 159.129 34.8523 157.364ZM53.0911 161.659V151.545H57.2048V169H53.2161V165.898H53.0343C52.6404 166.875 51.9927 167.674 51.0911 168.295C50.1972 168.917 49.0949 169.227 47.7843 169.227C46.6404 169.227 45.629 168.973 44.7502 168.466C43.879 167.951 43.1972 167.205 42.7048 166.227C42.2123 165.242 41.9661 164.053 41.9661 162.659V151.545H46.0798V162.023C46.0798 163.129 46.3828 164.008 46.9889 164.659C47.5949 165.311 48.3904 165.636 49.3752 165.636C49.9813 165.636 50.5684 165.489 51.1366 165.193C51.7048 164.898 52.1707 164.458 52.5343 163.875C52.9055 163.284 53.0911 162.545 53.0911 161.659ZM65.4976 169.352C64.3916 169.352 63.3953 169.155 62.509 168.761C61.6302 168.36 60.9332 167.769 60.4181 166.989C59.9105 166.208 59.6567 165.246 59.6567 164.102C59.6567 163.117 59.8385 162.303 60.2022 161.659C60.5658 161.015 61.062 160.5 61.6908 160.114C62.3196 159.727 63.0279 159.436 63.8158 159.239C64.6113 159.034 65.4332 158.886 66.2817 158.795C67.3044 158.689 68.134 158.595 68.7703 158.511C69.4067 158.42 69.8688 158.284 70.1567 158.102C70.4522 157.913 70.5999 157.621 70.5999 157.227V157.159C70.5999 156.303 70.3461 155.64 69.8385 155.17C69.3309 154.701 68.5999 154.466 67.6453 154.466C66.6378 154.466 65.8385 154.686 65.2476 155.125C64.6643 155.564 64.2703 156.083 64.0658 156.682L60.2249 156.136C60.5279 155.076 61.0279 154.189 61.7249 153.477C62.4219 152.758 63.2741 152.22 64.2817 151.864C65.2893 151.5 66.4029 151.318 67.6226 151.318C68.4635 151.318 69.3006 151.417 70.134 151.614C70.9673 151.811 71.7287 152.136 72.4181 152.591C73.1075 153.038 73.6605 153.648 74.0772 154.42C74.5014 155.193 74.7135 156.159 74.7135 157.318V169H70.759V166.602H70.6226C70.3726 167.087 70.0203 167.542 69.5658 167.966C69.1188 168.383 68.5544 168.72 67.8726 168.977C67.1984 169.227 66.4067 169.352 65.4976 169.352ZM66.5658 166.33C67.3916 166.33 68.1075 166.167 68.7135 165.841C69.3196 165.508 69.7855 165.068 70.1113 164.523C70.4446 163.977 70.6113 163.383 70.6113 162.739V160.682C70.4825 160.788 70.2628 160.886 69.9522 160.977C69.6491 161.068 69.3082 161.148 68.9294 161.216C68.5506 161.284 68.1756 161.345 67.8044 161.398C67.4332 161.451 67.1113 161.496 66.8385 161.534C66.2249 161.617 65.6756 161.754 65.1908 161.943C64.7059 162.133 64.3234 162.398 64.0431 162.739C63.7628 163.072 63.6226 163.504 63.6226 164.034C63.6226 164.792 63.8991 165.364 64.4522 165.75C65.0052 166.136 65.7097 166.33 66.5658 166.33ZM82.0035 145.727V169H77.8899V145.727H82.0035ZM85.2736 169V151.545H89.3873V169H85.2736ZM87.3418 149.068C86.6903 149.068 86.1297 148.852 85.66 148.42C85.1903 147.981 84.9555 147.455 84.9555 146.841C84.9555 146.22 85.1903 145.693 85.66 145.261C86.1297 144.822 86.6903 144.602 87.3418 144.602C88.0009 144.602 88.5615 144.822 89.0236 145.261C89.4933 145.693 89.7282 146.22 89.7282 146.841C89.7282 147.455 89.4933 147.981 89.0236 148.42C88.5615 148.852 88.0009 149.068 87.3418 149.068ZM101.373 151.545V154.727H91.3392V151.545H101.373ZM93.8165 147.364H97.9301V163.75C97.9301 164.303 98.0134 164.727 98.1801 165.023C98.3544 165.311 98.5816 165.508 98.8619 165.614C99.1422 165.72 99.4528 165.773 99.7937 165.773C100.051 165.773 100.286 165.754 100.498 165.716C100.718 165.678 100.885 165.644 100.998 165.614L101.691 168.83C101.472 168.905 101.157 168.989 100.748 169.08C100.347 169.17 99.8544 169.223 99.271 169.239C98.2407 169.269 97.3127 169.114 96.4869 168.773C95.6612 168.424 95.0059 167.886 94.521 167.159C94.0437 166.432 93.8089 165.523 93.8165 164.432V147.364ZM106.41 175.545C105.85 175.545 105.331 175.5 104.854 175.409C104.384 175.326 104.009 175.227 103.729 175.114L104.683 171.909C105.282 172.083 105.816 172.167 106.285 172.159C106.755 172.152 107.168 172.004 107.524 171.716C107.888 171.436 108.195 170.966 108.445 170.307L108.797 169.364L102.467 151.545H106.831L110.854 164.727H111.035L115.07 151.545H119.445L112.456 171.114C112.13 172.038 111.698 172.83 111.16 173.489C110.623 174.155 109.963 174.663 109.183 175.011C108.41 175.367 107.486 175.545 106.41 175.545ZM21.2841 208H16.7841L24.9773 184.727H30.1818L38.3864 208H33.8864L27.6705 189.5H27.4886L21.2841 208ZM21.4318 198.875H33.7045V202.261H21.4318V198.875ZM53.8241 195.159L50.0741 195.568C49.968 195.189 49.7824 194.833 49.5173 194.5C49.2597 194.167 48.9112 193.898 48.4718 193.693C48.0324 193.489 47.4945 193.386 46.8582 193.386C46.0021 193.386 45.2824 193.572 44.6991 193.943C44.1233 194.314 43.8392 194.795 43.8468 195.386C43.8392 195.894 44.0248 196.307 44.4036 196.625C44.79 196.943 45.4264 197.205 46.3127 197.409L49.29 198.045C50.9415 198.402 52.1688 198.966 52.9718 199.739C53.7824 200.511 54.1915 201.523 54.1991 202.773C54.1915 203.871 53.8695 204.841 53.2332 205.682C52.6044 206.515 51.7294 207.167 50.6082 207.636C49.487 208.106 48.1991 208.341 46.7445 208.341C44.6082 208.341 42.8885 207.894 41.5855 207C40.2824 206.098 39.5059 204.845 39.2559 203.239L43.2673 202.852C43.4491 203.64 43.8355 204.235 44.4264 204.636C45.0173 205.038 45.7862 205.239 46.7332 205.239C47.7105 205.239 48.4945 205.038 49.0855 204.636C49.6839 204.235 49.9832 203.739 49.9832 203.148C49.9832 202.648 49.79 202.235 49.4036 201.909C49.0248 201.583 48.4339 201.333 47.6309 201.159L44.6536 200.534C42.9794 200.186 41.7408 199.598 40.9377 198.773C40.1347 197.939 39.737 196.886 39.7445 195.614C39.737 194.538 40.0286 193.606 40.6195 192.818C41.218 192.023 42.0476 191.409 43.1082 190.977C44.1764 190.538 45.4074 190.318 46.8014 190.318C48.8468 190.318 50.4567 190.754 51.6309 191.625C52.8127 192.496 53.5438 193.674 53.8241 195.159ZM70.4266 195.159L66.6766 195.568C66.5705 195.189 66.3849 194.833 66.1198 194.5C65.8622 194.167 65.5137 193.898 65.0743 193.693C64.6349 193.489 64.097 193.386 63.4607 193.386C62.6046 193.386 61.8849 193.572 61.3016 193.943C60.7258 194.314 60.4417 194.795 60.4493 195.386C60.4417 195.894 60.6274 196.307 61.0061 196.625C61.3925 196.943 62.0289 197.205 62.9152 197.409L65.8925 198.045C67.544 198.402 68.7713 198.966 69.5743 199.739C70.3849 200.511 70.794 201.523 70.8016 202.773C70.794 203.871 70.472 204.841 69.8357 205.682C69.2069 206.515 68.3319 207.167 67.2107 207.636C66.0895 208.106 64.8016 208.341 63.347 208.341C61.2107 208.341 59.491 207.894 58.188 207C56.8849 206.098 56.1084 204.845 55.8584 203.239L59.8698 202.852C60.0516 203.64 60.438 204.235 61.0289 204.636C61.6198 205.038 62.3887 205.239 63.3357 205.239C64.313 205.239 65.097 205.038 65.688 204.636C66.2864 204.235 66.5857 203.739 66.5857 203.148C66.5857 202.648 66.3925 202.235 66.0061 201.909C65.6274 201.583 65.0364 201.333 64.2334 201.159L61.2561 200.534C59.5819 200.186 58.3433 199.598 57.5402 198.773C56.7372 197.939 56.3395 196.886 56.347 195.614C56.3395 194.538 56.6311 193.606 57.222 192.818C57.8205 192.023 58.6501 191.409 59.7107 190.977C60.7789 190.538 62.0099 190.318 63.4039 190.318C65.4493 190.318 67.0592 190.754 68.2334 191.625C69.4152 192.496 70.1463 193.674 70.4266 195.159ZM84.3586 200.659V190.545H88.4723V208H84.4836V204.898H84.3018C83.9079 205.875 83.2602 206.674 82.3586 207.295C81.4647 207.917 80.3624 208.227 79.0518 208.227C77.9079 208.227 76.8965 207.973 76.0177 207.466C75.1465 206.951 74.4647 206.205 73.9723 205.227C73.4798 204.242 73.2336 203.053 73.2336 201.659V190.545H77.3473V201.023C77.3473 202.129 77.6503 203.008 78.2564 203.659C78.8624 204.311 79.6579 204.636 80.6427 204.636C81.2488 204.636 81.8359 204.489 82.4041 204.193C82.9723 203.898 83.4382 203.458 83.8018 202.875C84.173 202.284 84.3586 201.545 84.3586 200.659ZM91.7424 208V190.545H95.731V193.455H95.9128C96.231 192.447 96.7765 191.67 97.5492 191.125C98.3295 190.572 99.2197 190.295 100.22 190.295C100.447 190.295 100.701 190.307 100.981 190.33C101.269 190.345 101.508 190.371 101.697 190.409V194.193C101.523 194.133 101.246 194.08 100.867 194.034C100.496 193.981 100.136 193.955 99.7878 193.955C99.0378 193.955 98.3636 194.117 97.7651 194.443C97.1742 194.761 96.7083 195.205 96.3674 195.773C96.0265 196.341 95.856 196.996 95.856 197.739V208H91.7424ZM108.18 208.352C107.074 208.352 106.078 208.155 105.191 207.761C104.313 207.36 103.616 206.769 103.101 205.989C102.593 205.208 102.339 204.246 102.339 203.102C102.339 202.117 102.521 201.303 102.885 200.659C103.248 200.015 103.745 199.5 104.373 199.114C105.002 198.727 105.71 198.436 106.498 198.239C107.294 198.034 108.116 197.886 108.964 197.795C109.987 197.689 110.816 197.595 111.453 197.511C112.089 197.42 112.551 197.284 112.839 197.102C113.135 196.913 113.282 196.621 113.282 196.227V196.159C113.282 195.303 113.029 194.64 112.521 194.17C112.013 193.701 111.282 193.466 110.328 193.466C109.32 193.466 108.521 193.686 107.93 194.125C107.347 194.564 106.953 195.083 106.748 195.682L102.907 195.136C103.21 194.076 103.71 193.189 104.407 192.477C105.104 191.758 105.957 191.22 106.964 190.864C107.972 190.5 109.085 190.318 110.305 190.318C111.146 190.318 111.983 190.417 112.816 190.614C113.65 190.811 114.411 191.136 115.101 191.591C115.79 192.038 116.343 192.648 116.76 193.42C117.184 194.193 117.396 195.159 117.396 196.318V208H113.441V205.602H113.305C113.055 206.087 112.703 206.542 112.248 206.966C111.801 207.383 111.237 207.72 110.555 207.977C109.881 208.227 109.089 208.352 108.18 208.352ZM109.248 205.33C110.074 205.33 110.79 205.167 111.396 204.841C112.002 204.508 112.468 204.068 112.794 203.523C113.127 202.977 113.294 202.383 113.294 201.739V199.682C113.165 199.788 112.945 199.886 112.635 199.977C112.332 200.068 111.991 200.148 111.612 200.216C111.233 200.284 110.858 200.345 110.487 200.398C110.116 200.451 109.794 200.496 109.521 200.534C108.907 200.617 108.358 200.754 107.873 200.943C107.388 201.133 107.006 201.398 106.726 201.739C106.445 202.072 106.305 202.504 106.305 203.034C106.305 203.792 106.582 204.364 107.135 204.75C107.688 205.136 108.392 205.33 109.248 205.33ZM124.686 197.773V208H120.572V190.545H124.504V193.511H124.709C125.11 192.534 125.75 191.758 126.629 191.182C127.516 190.606 128.61 190.318 129.913 190.318C131.118 190.318 132.167 190.576 133.061 191.091C133.963 191.606 134.66 192.352 135.152 193.33C135.652 194.307 135.898 195.492 135.891 196.886V208H131.777V197.523C131.777 196.356 131.474 195.443 130.868 194.784C130.269 194.125 129.44 193.795 128.379 193.795C127.66 193.795 127.019 193.955 126.459 194.273C125.906 194.583 125.47 195.034 125.152 195.625C124.841 196.216 124.686 196.932 124.686 197.773ZM146.726 208.341C144.984 208.341 143.487 207.958 142.237 207.193C140.995 206.428 140.037 205.371 139.362 204.023C138.696 202.667 138.362 201.106 138.362 199.341C138.362 197.568 138.703 196.004 139.385 194.648C140.067 193.284 141.029 192.223 142.271 191.466C143.521 190.701 144.999 190.318 146.703 190.318C148.12 190.318 149.374 190.58 150.465 191.102C151.563 191.617 152.438 192.348 153.09 193.295C153.741 194.235 154.112 195.333 154.203 196.591H150.271C150.112 195.75 149.734 195.049 149.135 194.489C148.544 193.92 147.753 193.636 146.76 193.636C145.919 193.636 145.181 193.864 144.544 194.318C143.908 194.765 143.412 195.409 143.056 196.25C142.707 197.091 142.533 198.098 142.533 199.273C142.533 200.462 142.707 201.485 143.056 202.341C143.404 203.189 143.893 203.845 144.521 204.307C145.158 204.761 145.904 204.989 146.76 204.989C147.366 204.989 147.908 204.875 148.385 204.648C148.87 204.413 149.275 204.076 149.601 203.636C149.927 203.197 150.15 202.663 150.271 202.034H154.203C154.105 203.269 153.741 204.364 153.112 205.318C152.484 206.265 151.628 207.008 150.544 207.545C149.461 208.076 148.188 208.341 146.726 208.341ZM164.348 208.341C162.598 208.341 161.087 207.977 159.814 207.25C158.549 206.515 157.576 205.477 156.894 204.136C156.212 202.788 155.871 201.201 155.871 199.375C155.871 197.58 156.212 196.004 156.894 194.648C157.583 193.284 158.545 192.223 159.78 191.466C161.015 190.701 162.466 190.318 164.133 190.318C165.208 190.318 166.223 190.492 167.178 190.841C168.14 191.182 168.989 191.712 169.723 192.432C170.466 193.152 171.049 194.068 171.473 195.182C171.898 196.288 172.11 197.606 172.11 199.136V200.398H157.803V197.625H168.167C168.159 196.837 167.989 196.136 167.655 195.523C167.322 194.902 166.856 194.413 166.258 194.057C165.667 193.701 164.977 193.523 164.189 193.523C163.348 193.523 162.61 193.727 161.973 194.136C161.337 194.538 160.841 195.068 160.485 195.727C160.136 196.379 159.958 197.095 159.951 197.875V200.295C159.951 201.311 160.136 202.182 160.508 202.909C160.879 203.629 161.398 204.182 162.064 204.568C162.731 204.947 163.511 205.136 164.405 205.136C165.004 205.136 165.545 205.053 166.03 204.886C166.515 204.712 166.936 204.458 167.292 204.125C167.648 203.792 167.917 203.379 168.098 202.886L171.939 203.318C171.697 204.333 171.235 205.22 170.553 205.977C169.879 206.727 169.015 207.311 167.962 207.727C166.909 208.136 165.704 208.341 164.348 208.341ZM182.63 196.364C182.63 193.523 183.005 190.913 183.755 188.534C184.513 186.148 185.638 183.943 187.13 181.92H191.005C190.429 182.67 189.891 183.591 189.391 184.682C188.891 185.765 188.456 186.955 188.085 188.25C187.721 189.538 187.433 190.875 187.221 192.261C187.016 193.648 186.914 195.015 186.914 196.364C186.914 198.159 187.092 199.977 187.448 201.818C187.812 203.659 188.301 205.367 188.914 206.943C189.535 208.511 190.232 209.795 191.005 210.795H187.13C185.638 208.773 184.513 206.572 183.755 204.193C183.005 201.807 182.63 199.197 182.63 196.364ZM202.093 200.182H205.912L208.173 203.114L209.787 205.023L213.662 210H209.571L206.934 206.659L205.809 205.068L202.093 200.182ZM214.218 196.364C214.218 198.871 213.749 201.019 212.809 202.807C211.878 204.587 210.605 205.951 208.991 206.898C207.385 207.845 205.563 208.318 203.525 208.318C201.487 208.318 199.662 207.845 198.048 206.898C196.442 205.943 195.169 204.576 194.23 202.795C193.298 201.008 192.832 198.864 192.832 196.364C192.832 193.856 193.298 191.712 194.23 189.932C195.169 188.144 196.442 186.777 198.048 185.83C199.662 184.883 201.487 184.409 203.525 184.409C205.563 184.409 207.385 184.883 208.991 185.83C210.605 186.777 211.878 188.144 212.809 189.932C213.749 191.712 214.218 193.856 214.218 196.364ZM209.98 196.364C209.98 194.598 209.703 193.11 209.15 191.898C208.605 190.678 207.847 189.758 206.878 189.136C205.908 188.508 204.79 188.193 203.525 188.193C202.26 188.193 201.143 188.508 200.173 189.136C199.203 189.758 198.442 190.678 197.889 191.898C197.343 193.11 197.071 194.598 197.071 196.364C197.071 198.129 197.343 199.621 197.889 200.841C198.442 202.053 199.203 202.973 200.173 203.602C201.143 204.223 202.26 204.534 203.525 204.534C204.79 204.534 205.908 204.223 206.878 203.602C207.847 202.973 208.605 202.053 209.15 200.841C209.703 199.621 209.98 198.129 209.98 196.364ZM219.014 208H214.514L222.707 184.727H227.912L236.116 208H231.616L225.4 189.5H225.219L219.014 208ZM219.162 198.875H231.435V202.261H219.162V198.875ZM245.381 196.364C245.381 199.197 245.002 201.807 244.244 204.193C243.494 206.572 242.373 208.773 240.881 210.795H237.006C237.589 210.045 238.127 209.129 238.619 208.045C239.119 206.962 239.551 205.773 239.915 204.477C240.286 203.182 240.574 201.841 240.779 200.455C240.991 199.068 241.097 197.705 241.097 196.364C241.097 194.568 240.915 192.75 240.551 190.909C240.195 189.068 239.707 187.36 239.085 185.784C238.472 184.208 237.779 182.92 237.006 181.92H240.881C242.373 183.943 243.494 186.148 244.244 188.534C245.002 190.913 245.381 193.523 245.381 196.364Z" fill="#FBFBFB"/>
<defs>
<linearGradient id="paint0_linear_871_12862" x1="478.652" y1="-34.654" x2="37.5116" y2="365.673" gradientUnits="userSpaceOnUse">
<stop stop-color="#4AFA71"/>
<stop offset="1" stop-color="#215623"/>
</linearGradient>
<clipPath id="clip0_871_12862">
<rect width="196" height="209" fill="white" transform="translate(241 10)"/>
</clipPath>
</defs>
</svg>
