<svg width="437" height="224" viewBox="0 0 437 224" fill="none" xmlns="http://www.w3.org/2000/svg">
<rect width="437" height="224" rx="20" fill="url(#paint0_linear_871_12867)"/>
<g clip-path="url(#clip0_871_12867)">
<path d="M240.577 93.5C259.171 93.5 274.231 79.5156 274.231 62.25C274.231 44.9844 259.171 31 240.577 31C221.983 31 206.923 44.9844 206.923 62.25C206.923 79.5156 221.983 93.5 240.577 93.5ZM395.385 93.5C413.978 93.5 429.038 79.5156 429.038 62.25C429.038 44.9844 413.978 31 395.385 31C376.791 31 361.731 44.9844 361.731 62.25C361.731 79.5156 376.791 93.5 395.385 93.5ZM180 147.68C180 152.25 184.038 156 188.96 156H278.732C278.816 156 278.9 156 279.026 156C267.837 146.82 260.811 133.422 260.811 118.5C260.811 115.531 261.106 112.641 261.611 109.789C255.889 107.328 249.537 106 242.849 106H224.886C200.108 106 180 124.672 180 147.68ZM314.615 156C324.712 156 333.924 152.563 340.992 146.898C342.043 145.453 343.179 144.047 344.357 142.719C345.493 141.43 346.755 140.336 348.143 139.477C352.476 133.461 355 126.273 355 118.5C355 97.7969 336.911 81 314.615 81C292.32 81 274.231 97.7969 274.231 118.5C274.231 139.203 292.32 156 314.615 156ZM342.127 179.516C337.794 177.211 334.513 173.188 333.377 168.5H289.922C258.96 168.5 233.846 191.82 233.846 220.57C233.846 226.312 238.852 231 245.078 231H371.49C370.607 228.969 370.144 226.742 370.144 224.594V223.422C369.597 223.148 369.008 222.836 368.462 222.523L367.368 223.109C360.3 226.898 350.331 226.234 344.357 219.32C342.464 217.133 340.739 214.828 339.141 212.445L339.099 212.367L339.056 212.289L338.047 210.688L338.005 210.609L337.963 210.531C336.532 208.109 335.27 205.609 334.177 202.992C330.727 194.711 335.102 186.352 342.169 182.562L343.305 181.977C343.305 181.664 343.305 181.391 343.305 181.078C343.305 180.766 343.305 180.492 343.305 180.18L342.169 179.594L342.127 179.516ZM404.345 106H386.424C379.736 106 373.383 107.367 367.662 109.789C368.209 112.602 368.462 115.531 368.462 118.5C368.462 125.297 366.989 131.742 364.381 137.641C365.433 137.992 366.442 138.422 367.368 138.93L368.462 139.516C369.008 139.203 369.555 138.891 370.144 138.617V137.445C370.144 129.867 375.739 122.172 385.204 120.805C388.528 120.336 391.935 120.062 395.385 120.062C398.834 120.062 402.242 120.297 405.565 120.805C415.03 122.172 420.625 129.867 420.625 137.445V138.617C421.172 138.891 421.761 139.203 422.308 139.516L423.401 138.93C430.469 135.141 440.439 135.805 446.412 142.719C447.38 143.812 448.305 144.984 449.189 146.117C448.305 123.813 428.576 106 404.345 106V106ZM442.752 170.023C445.403 168.617 446.749 165.687 445.613 162.992C444.73 160.844 443.678 158.773 442.5 156.781L441.532 155.219C440.228 153.227 438.798 151.352 437.242 149.555C435.306 147.328 431.899 146.937 429.249 148.383L421.635 152.484C417.891 149.516 413.6 147.172 408.846 145.609V137.406C408.846 134.555 406.785 132.016 403.756 131.586C401.022 131.195 398.245 131 395.385 131C392.524 131 389.748 131.195 387.013 131.586C383.984 132.016 381.923 134.555 381.923 137.406V145.609C377.212 147.172 372.879 149.516 369.135 152.484L361.478 148.383C358.828 146.977 355.421 147.367 353.486 149.555C351.929 151.352 350.499 153.266 349.195 155.258L348.227 156.781C347.049 158.773 345.998 160.844 345.114 162.992C344.02 165.648 345.325 168.578 347.975 169.984L355.631 174.086C355.21 176.312 354.958 178.617 354.958 180.961C354.958 183.305 355.21 185.609 355.631 187.797L347.975 191.898C345.325 193.305 343.978 196.234 345.114 198.891C345.998 201.039 347.049 203.07 348.227 205.063L349.237 206.664C350.499 208.656 351.929 210.531 353.486 212.328C355.421 214.555 358.828 214.945 361.478 213.5L369.135 209.516C372.879 212.484 377.212 214.828 381.923 216.391V224.594C381.923 227.445 383.984 229.984 387.013 230.414C389.748 230.805 392.524 231 395.385 231C398.245 231 401.022 230.805 403.756 230.414C406.785 229.984 408.846 227.445 408.846 224.594V216.391C413.558 214.828 417.891 212.484 421.635 209.516L429.291 213.617C431.941 215.023 435.349 214.633 437.284 212.445C438.84 210.648 440.27 208.773 441.532 206.781L442.542 205.141C443.72 203.148 444.772 201.117 445.655 198.969C446.749 196.312 445.445 193.383 442.794 191.977L435.138 187.875C435.559 185.648 435.811 183.344 435.811 181.039C435.811 178.734 435.559 176.391 435.138 174.164L442.794 170.062L442.752 170.023ZM412.212 181C412.212 189.633 404.681 196.625 395.385 196.625C386.088 196.625 378.558 189.633 378.558 181C378.558 172.367 386.088 165.375 395.385 165.375C404.681 165.375 412.212 172.367 412.212 181Z" fill="#F0F98E" fill-opacity="0.4"/>
</g>
<path d="M30.9432 191.125C30.8371 190.133 30.3902 189.36 29.6023 188.807C28.822 188.254 27.8068 187.977 26.5568 187.977C25.678 187.977 24.9242 188.11 24.2955 188.375C23.6667 188.64 23.1856 189 22.8523 189.455C22.5189 189.909 22.3485 190.428 22.3409 191.011C22.3409 191.496 22.4508 191.917 22.6705 192.273C22.8977 192.629 23.2045 192.932 23.5909 193.182C23.9773 193.424 24.4053 193.629 24.875 193.795C25.3447 193.962 25.8182 194.102 26.2955 194.216L28.4773 194.761C29.3561 194.966 30.2008 195.242 31.0114 195.591C31.8295 195.939 32.5606 196.379 33.2045 196.909C33.8561 197.439 34.3712 198.08 34.75 198.83C35.1288 199.58 35.3182 200.458 35.3182 201.466C35.3182 202.83 34.9697 204.03 34.2727 205.068C33.5758 206.098 32.5682 206.905 31.25 207.489C29.9394 208.064 28.3523 208.352 26.4886 208.352C24.678 208.352 23.1061 208.072 21.7727 207.511C20.447 206.951 19.4091 206.133 18.6591 205.057C17.9167 203.981 17.5152 202.67 17.4545 201.125H21.6023C21.6629 201.936 21.9129 202.61 22.3523 203.148C22.7917 203.686 23.3636 204.087 24.0682 204.352C24.7803 204.617 25.5758 204.75 26.4545 204.75C27.3712 204.75 28.1742 204.614 28.8636 204.341C29.5606 204.061 30.1061 203.674 30.5 203.182C30.8939 202.682 31.0947 202.098 31.1023 201.432C31.0947 200.826 30.9167 200.326 30.5682 199.932C30.2197 199.53 29.7311 199.197 29.1023 198.932C28.4811 198.659 27.7538 198.417 26.9205 198.205L24.2727 197.523C22.3561 197.03 20.8409 196.284 19.7273 195.284C18.6212 194.277 18.0682 192.939 18.0682 191.273C18.0682 189.902 18.4394 188.701 19.1818 187.67C19.9318 186.64 20.9508 185.841 22.2386 185.273C23.5265 184.697 24.9848 184.409 26.6136 184.409C28.2652 184.409 29.7121 184.697 30.9545 185.273C32.2045 185.841 33.1856 186.633 33.8977 187.648C34.6098 188.655 34.9773 189.814 35 191.125H30.9432ZM45.5485 208.341C43.844 208.341 42.3667 207.966 41.1167 207.216C39.8667 206.466 38.897 205.417 38.2076 204.068C37.5258 202.72 37.1849 201.144 37.1849 199.341C37.1849 197.538 37.5258 195.958 38.2076 194.602C38.897 193.246 39.8667 192.193 41.1167 191.443C42.3667 190.693 43.844 190.318 45.5485 190.318C47.2531 190.318 48.7303 190.693 49.9803 191.443C51.2303 192.193 52.1963 193.246 52.8781 194.602C53.5675 195.958 53.9122 197.538 53.9122 199.341C53.9122 201.144 53.5675 202.72 52.8781 204.068C52.1963 205.417 51.2303 206.466 49.9803 207.216C48.7303 207.966 47.2531 208.341 45.5485 208.341ZM45.5713 205.045C46.4955 205.045 47.2682 204.792 47.8894 204.284C48.5106 203.769 48.9728 203.08 49.2758 202.216C49.5864 201.352 49.7417 200.39 49.7417 199.33C49.7417 198.261 49.5864 197.295 49.2758 196.432C48.9728 195.561 48.5106 194.867 47.8894 194.352C47.2682 193.837 46.4955 193.58 45.5713 193.58C44.6243 193.58 43.8364 193.837 43.2076 194.352C42.5864 194.867 42.1205 195.561 41.8099 196.432C41.5069 197.295 41.3553 198.261 41.3553 199.33C41.3553 200.39 41.5069 201.352 41.8099 202.216C42.1205 203.08 42.5864 203.769 43.2076 204.284C43.8364 204.792 44.6243 205.045 45.5713 205.045ZM65.2845 190.545V193.727H54.9664V190.545H65.2845ZM57.5459 208V188.898C57.5459 187.723 57.7883 186.746 58.2732 185.966C58.7656 185.186 59.4247 184.602 60.2505 184.216C61.0762 183.83 61.9929 183.636 63.0005 183.636C63.7126 183.636 64.3452 183.693 64.8982 183.807C65.4512 183.92 65.8603 184.023 66.1255 184.114L65.3073 187.295C65.133 187.242 64.9133 187.189 64.6482 187.136C64.383 187.076 64.0876 187.045 63.7618 187.045C62.9967 187.045 62.455 187.231 62.1368 187.602C61.8262 187.966 61.6709 188.489 61.6709 189.17V208H57.5459ZM76.262 190.545V193.727H66.228V190.545H76.262ZM68.7052 186.364H72.8189V202.75C72.8189 203.303 72.9022 203.727 73.0689 204.023C73.2431 204.311 73.4704 204.508 73.7507 204.614C74.031 204.72 74.3416 204.773 74.6825 204.773C74.9401 204.773 75.1749 204.754 75.387 204.716C75.6067 204.678 75.7734 204.644 75.887 204.614L76.5802 207.83C76.3605 207.905 76.0461 207.989 75.637 208.08C75.2355 208.17 74.7431 208.223 74.1598 208.239C73.1295 208.269 72.2014 208.114 71.3757 207.773C70.5499 207.424 69.8946 206.886 69.4098 206.159C68.9325 205.432 68.6977 204.523 68.7052 203.432V186.364ZM98.5494 191.125C98.4434 190.133 97.9964 189.36 97.2085 188.807C96.4282 188.254 95.4131 187.977 94.1631 187.977C93.2843 187.977 92.5305 188.11 91.9017 188.375C91.2729 188.64 90.7919 189 90.4585 189.455C90.1252 189.909 89.9547 190.428 89.9472 191.011C89.9472 191.496 90.057 191.917 90.2767 192.273C90.504 192.629 90.8108 192.932 91.1972 193.182C91.5835 193.424 92.0116 193.629 92.4812 193.795C92.9509 193.962 93.4244 194.102 93.9017 194.216L96.0835 194.761C96.9623 194.966 97.807 195.242 98.6176 195.591C99.4358 195.939 100.167 196.379 100.811 196.909C101.462 197.439 101.977 198.08 102.356 198.83C102.735 199.58 102.924 200.458 102.924 201.466C102.924 202.83 102.576 204.03 101.879 205.068C101.182 206.098 100.174 206.905 98.8562 207.489C97.5456 208.064 95.9585 208.352 94.0949 208.352C92.2843 208.352 90.7123 208.072 89.379 207.511C88.0532 206.951 87.0153 206.133 86.2653 205.057C85.5229 203.981 85.1214 202.67 85.0608 201.125H89.2085C89.2691 201.936 89.5191 202.61 89.9585 203.148C90.3979 203.686 90.9699 204.087 91.6744 204.352C92.3866 204.617 93.182 204.75 94.0608 204.75C94.9775 204.75 95.7805 204.614 96.4699 204.341C97.1669 204.061 97.7123 203.674 98.1062 203.182C98.5002 202.682 98.7009 202.098 98.7085 201.432C98.7009 200.826 98.5229 200.326 98.1744 199.932C97.8259 199.53 97.3373 199.197 96.7085 198.932C96.0873 198.659 95.36 198.417 94.5267 198.205L91.879 197.523C89.9623 197.03 88.4472 196.284 87.3335 195.284C86.2275 194.277 85.6744 192.939 85.6744 191.273C85.6744 189.902 86.0456 188.701 86.7881 187.67C87.5381 186.64 88.557 185.841 89.8449 185.273C91.1328 184.697 92.5911 184.409 94.2199 184.409C95.8714 184.409 97.3184 184.697 98.5608 185.273C99.8108 185.841 100.792 186.633 101.504 187.648C102.216 188.655 102.584 189.814 102.606 191.125H98.5494ZM109.291 202.523L109.28 197.557H109.939L116.212 190.545H121.018L113.302 199.136H112.45L109.291 202.523ZM105.541 208V184.727H109.655V208H105.541ZM116.496 208L110.814 200.057L113.587 197.159L121.416 208H116.496ZM122.8 208V190.545H126.914V208H122.8ZM124.868 188.068C124.217 188.068 123.656 187.852 123.186 187.42C122.717 186.981 122.482 186.455 122.482 185.841C122.482 185.22 122.717 184.693 123.186 184.261C123.656 183.822 124.217 183.602 124.868 183.602C125.527 183.602 126.088 183.822 126.55 184.261C127.02 184.693 127.254 185.22 127.254 185.841C127.254 186.455 127.02 186.981 126.55 187.42C126.088 187.852 125.527 188.068 124.868 188.068ZM134.297 184.727V208H130.184V184.727H134.297ZM141.681 184.727V208H137.567V184.727H141.681ZM158.747 195.159L154.997 195.568C154.891 195.189 154.705 194.833 154.44 194.5C154.182 194.167 153.834 193.898 153.394 193.693C152.955 193.489 152.417 193.386 151.781 193.386C150.925 193.386 150.205 193.572 149.622 193.943C149.046 194.314 148.762 194.795 148.769 195.386C148.762 195.894 148.947 196.307 149.326 196.625C149.713 196.943 150.349 197.205 151.235 197.409L154.213 198.045C155.864 198.402 157.091 198.966 157.894 199.739C158.705 200.511 159.114 201.523 159.122 202.773C159.114 203.871 158.792 204.841 158.156 205.682C157.527 206.515 156.652 207.167 155.531 207.636C154.409 208.106 153.122 208.341 151.667 208.341C149.531 208.341 147.811 207.894 146.508 207C145.205 206.098 144.428 204.845 144.178 203.239L148.19 202.852C148.372 203.64 148.758 204.235 149.349 204.636C149.94 205.038 150.709 205.239 151.656 205.239C152.633 205.239 153.417 205.038 154.008 204.636C154.606 204.235 154.906 203.739 154.906 203.148C154.906 202.648 154.713 202.235 154.326 201.909C153.947 201.583 153.356 201.333 152.553 201.159L149.576 200.534C147.902 200.186 146.663 199.598 145.86 198.773C145.057 197.939 144.659 196.886 144.667 195.614C144.659 194.538 144.951 193.606 145.542 192.818C146.141 192.023 146.97 191.409 148.031 190.977C149.099 190.538 150.33 190.318 151.724 190.318C153.769 190.318 155.379 190.754 156.553 191.625C157.735 192.496 158.466 193.674 158.747 195.159Z" fill="#FBFBFB"/>
<defs>
<linearGradient id="paint0_linear_871_12867" x1="478.652" y1="-34.5" x2="39.2872" y2="365.995" gradientUnits="userSpaceOnUse">
<stop stop-color="#FEF76A"/>
<stop offset="1" stop-color="#979A0B"/>
</linearGradient>
<clipPath id="clip0_871_12867">
<rect x="163" y="11" width="274" height="213" rx="20" fill="white"/>
</clipPath>
</defs>
</svg>
