<svg width="437" height="224" viewBox="0 0 437 224" fill="none" xmlns="http://www.w3.org/2000/svg">
<rect width="437" height="224" rx="20" fill="url(#paint0_linear_871_12856)"/>
<g clip-path="url(#clip0_871_12856)">
<path d="M370.004 116.714H469.082V145.286H370.004V116.714ZM384.158 173.857H469.082V202.429H384.158V173.857ZM355.849 59.5714H469.082V88.1429H355.849V59.5714ZM214.308 231H355.849V216.714C355.849 177.329 324.102 145.286 285.079 145.286H256.771C217.748 145.286 186 177.329 186 216.714V231H214.308ZM270.925 131C299.162 131 320.464 109.5 320.464 81C320.464 52.5 299.162 31 270.925 31C242.687 31 221.385 52.5 221.385 81C221.385 109.5 242.687 131 270.925 131Z" fill="#E86FE3" fill-opacity="0.4"/>
</g>
<path d="M32.9659 184.727H37.1818V199.932C37.1818 201.598 36.7879 203.064 36 204.33C35.2197 205.595 34.1212 206.583 32.7045 207.295C31.2879 208 29.6326 208.352 27.7386 208.352C25.8371 208.352 24.178 208 22.7614 207.295C21.3447 206.583 20.2462 205.595 19.4659 204.33C18.6856 203.064 18.2955 201.598 18.2955 199.932V184.727H22.5114V199.58C22.5114 200.549 22.7235 201.413 23.1477 202.17C23.5795 202.928 24.1856 203.523 24.9659 203.955C25.7462 204.379 26.6705 204.591 27.7386 204.591C28.8068 204.591 29.7311 204.379 30.5114 203.955C31.2992 203.523 31.9053 202.928 32.3295 202.17C32.7538 201.413 32.9659 200.549 32.9659 199.58V184.727ZM44.3269 184.727L49.4519 193.25H49.6338L54.7815 184.727H59.5883L52.4178 196.364L59.7019 208H54.8156L49.6338 199.534H49.4519L44.2701 208H39.4065L46.7588 196.364L39.4974 184.727H44.3269ZM71.2561 183.636L63.7561 211.5H60.1539L67.6539 183.636H71.2561ZM87.7734 184.727H91.9893V199.932C91.9893 201.598 91.5954 203.064 90.8075 204.33C90.0272 205.595 88.9287 206.583 87.512 207.295C86.0954 208 84.4401 208.352 82.5461 208.352C80.6446 208.352 78.9855 208 77.5689 207.295C76.1522 206.583 75.0537 205.595 74.2734 204.33C73.4931 203.064 73.103 201.598 73.103 199.932V184.727H77.3189V199.58C77.3189 200.549 77.531 201.413 77.9552 202.17C78.387 202.928 78.9931 203.523 79.7734 203.955C80.5537 204.379 81.478 204.591 82.5461 204.591C83.6143 204.591 84.5386 204.379 85.3189 203.955C86.1067 203.523 86.7128 202.928 87.137 202.17C87.5613 201.413 87.7734 200.549 87.7734 199.58V184.727ZM99.8276 184.727V208H95.6117V184.727H99.8276ZM118.297 208H110.41V184.727H118.456C120.767 184.727 122.751 185.193 124.41 186.125C126.077 187.049 127.357 188.379 128.251 190.114C129.145 191.848 129.592 193.924 129.592 196.341C129.592 198.765 129.142 200.848 128.24 202.591C127.346 204.333 126.054 205.67 124.365 206.602C122.683 207.534 120.66 208 118.297 208ZM114.626 204.352H118.092C119.713 204.352 121.066 204.057 122.149 203.466C123.232 202.867 124.047 201.977 124.592 200.795C125.138 199.606 125.41 198.121 125.41 196.341C125.41 194.561 125.138 193.083 124.592 191.909C124.047 190.727 123.24 189.845 122.172 189.261C121.111 188.67 119.793 188.375 118.217 188.375H114.626V204.352ZM140.183 208.341C138.433 208.341 136.922 207.977 135.649 207.25C134.384 206.515 133.411 205.477 132.729 204.136C132.047 202.788 131.706 201.201 131.706 199.375C131.706 197.58 132.047 196.004 132.729 194.648C133.418 193.284 134.38 192.223 135.615 191.466C136.85 190.701 138.301 190.318 139.967 190.318C141.043 190.318 142.058 190.492 143.013 190.841C143.975 191.182 144.824 191.712 145.558 192.432C146.301 193.152 146.884 194.068 147.308 195.182C147.733 196.288 147.945 197.606 147.945 199.136V200.398H133.638V197.625H144.002C143.994 196.837 143.824 196.136 143.49 195.523C143.157 194.902 142.691 194.413 142.092 194.057C141.502 193.701 140.812 193.523 140.024 193.523C139.183 193.523 138.445 193.727 137.808 194.136C137.172 194.538 136.676 195.068 136.32 195.727C135.971 196.379 135.793 197.095 135.786 197.875V200.295C135.786 201.311 135.971 202.182 136.342 202.909C136.714 203.629 137.233 204.182 137.899 204.568C138.566 204.947 139.346 205.136 140.24 205.136C140.839 205.136 141.38 205.053 141.865 204.886C142.35 204.712 142.771 204.458 143.127 204.125C143.483 203.792 143.752 203.379 143.933 202.886L147.774 203.318C147.532 204.333 147.07 205.22 146.388 205.977C145.714 206.727 144.85 207.311 143.797 207.727C142.744 208.136 141.539 208.341 140.183 208.341ZM164.26 195.159L160.51 195.568C160.404 195.189 160.219 194.833 159.954 194.5C159.696 194.167 159.347 193.898 158.908 193.693C158.469 193.489 157.931 193.386 157.294 193.386C156.438 193.386 155.719 193.572 155.135 193.943C154.56 194.314 154.275 194.795 154.283 195.386C154.275 195.894 154.461 196.307 154.84 196.625C155.226 196.943 155.863 197.205 156.749 197.409L159.726 198.045C161.378 198.402 162.605 198.966 163.408 199.739C164.219 200.511 164.628 201.523 164.635 202.773C164.628 203.871 164.306 204.841 163.669 205.682C163.041 206.515 162.166 207.167 161.044 207.636C159.923 208.106 158.635 208.341 157.181 208.341C155.044 208.341 153.325 207.894 152.022 207C150.719 206.098 149.942 204.845 149.692 203.239L153.704 202.852C153.885 203.64 154.272 204.235 154.863 204.636C155.454 205.038 156.222 205.239 157.169 205.239C158.147 205.239 158.931 205.038 159.522 204.636C160.12 204.235 160.419 203.739 160.419 203.148C160.419 202.648 160.226 202.235 159.84 201.909C159.461 201.583 158.87 201.333 158.067 201.159L155.09 200.534C153.416 200.186 152.177 199.598 151.374 198.773C150.571 197.939 150.173 196.886 150.181 195.614C150.173 194.538 150.465 193.606 151.056 192.818C151.654 192.023 152.484 191.409 153.544 190.977C154.613 190.538 155.844 190.318 157.238 190.318C159.283 190.318 160.893 190.754 162.067 191.625C163.249 192.496 163.98 193.674 164.26 195.159ZM167.067 208V190.545H171.181V208H167.067ZM169.136 188.068C168.484 188.068 167.923 187.852 167.454 187.42C166.984 186.981 166.749 186.455 166.749 185.841C166.749 185.22 166.984 184.693 167.454 184.261C167.923 183.822 168.484 183.602 169.136 183.602C169.795 183.602 170.355 183.822 170.817 184.261C171.287 184.693 171.522 185.22 171.522 185.841C171.522 186.455 171.287 186.981 170.817 187.42C170.355 187.852 169.795 188.068 169.136 188.068ZM182.042 214.909C180.565 214.909 179.296 214.708 178.235 214.307C177.175 213.913 176.322 213.383 175.678 212.716C175.034 212.049 174.587 211.311 174.337 210.5L178.042 209.602C178.209 209.943 178.451 210.28 178.769 210.614C179.087 210.955 179.516 211.235 180.053 211.455C180.599 211.682 181.284 211.795 182.11 211.795C183.277 211.795 184.243 211.511 185.008 210.943C185.773 210.383 186.156 209.458 186.156 208.17V204.864H185.951C185.739 205.288 185.428 205.723 185.019 206.17C184.618 206.617 184.084 206.992 183.417 207.295C182.758 207.598 181.928 207.75 180.928 207.75C179.587 207.75 178.372 207.436 177.281 206.807C176.197 206.17 175.334 205.223 174.69 203.966C174.053 202.701 173.735 201.117 173.735 199.216C173.735 197.299 174.053 195.682 174.69 194.364C175.334 193.038 176.201 192.034 177.292 191.352C178.383 190.663 179.599 190.318 180.94 190.318C181.962 190.318 182.803 190.492 183.462 190.841C184.129 191.182 184.659 191.595 185.053 192.08C185.447 192.557 185.747 193.008 185.951 193.432H186.178V190.545H190.235V208.284C190.235 209.777 189.879 211.011 189.167 211.989C188.455 212.966 187.481 213.697 186.247 214.182C185.012 214.667 183.61 214.909 182.042 214.909ZM182.076 204.523C182.947 204.523 183.69 204.311 184.303 203.886C184.917 203.462 185.383 202.852 185.701 202.057C186.019 201.261 186.178 200.307 186.178 199.193C186.178 198.095 186.019 197.133 185.701 196.307C185.391 195.481 184.928 194.841 184.315 194.386C183.709 193.924 182.962 193.693 182.076 193.693C181.159 193.693 180.394 193.932 179.781 194.409C179.167 194.886 178.705 195.542 178.394 196.375C178.084 197.201 177.928 198.14 177.928 199.193C177.928 200.261 178.084 201.197 178.394 202C178.712 202.795 179.178 203.417 179.792 203.864C180.413 204.303 181.175 204.523 182.076 204.523ZM197.605 197.773V208H193.491V190.545H197.423V193.511H197.628C198.029 192.534 198.669 191.758 199.548 191.182C200.434 190.606 201.529 190.318 202.832 190.318C204.037 190.318 205.086 190.576 205.98 191.091C206.881 191.606 207.578 192.352 208.071 193.33C208.571 194.307 208.817 195.492 208.809 196.886V208H204.696V197.523C204.696 196.356 204.393 195.443 203.787 194.784C203.188 194.125 202.359 193.795 201.298 193.795C200.578 193.795 199.938 193.955 199.378 194.273C198.824 194.583 198.389 195.034 198.071 195.625C197.76 196.216 197.605 196.932 197.605 197.773Z" fill="#FBFBFB"/>
<defs>
<linearGradient id="paint0_linear_871_12856" x1="478.652" y1="-34.5" x2="39.2872" y2="365.995" gradientUnits="userSpaceOnUse">
<stop stop-color="#FA4AF3"/>
<stop offset="1" stop-color="#770E59"/>
</linearGradient>
<clipPath id="clip0_871_12856">
<rect width="263" height="206" fill="white" transform="translate(174 18)"/>
</clipPath>
</defs>
</svg>
