<svg width="587" height="307" viewBox="0 0 587 307" fill="none" xmlns="http://www.w3.org/2000/svg">
<path fill-rule="evenodd" clip-rule="evenodd" d="M93.2553 146.18C93.3254 146.559 93.3942 146.931 93.462 147.296L93.4678 147.29C93.5137 147.539 93.5641 147.81 93.6185 148.102C96.8959 165.747 114.925 262.813 77.7108 257.954C40.5281 253.095 21.173 179.81 12.6192 147.423C12.2421 145.995 11.886 144.647 11.5503 143.387C11.4323 142.945 11.3063 142.474 11.1731 141.976C4.8507 118.352 -17.6524 34.2655 27.73 35.1502C28.7608 35.1676 29.7626 35.2429 30.7586 35.3413C27.7474 32.886 24.3539 29.2841 22.634 24.5588C19.1421 14.9633 23.9138 4.41237 23.9138 4.41237C23.9138 4.41237 34.3489 9.42724 37.8408 19.0285C38.999 22.2135 39.2422 25.4969 39.0569 28.4734C41.1243 22.364 44.8188 14.8591 51.2988 9.42145C64.166 -1.3727 83.1543 0.0634362 83.1543 0.0634362C83.1543 0.0634362 81.2722 19.0111 68.3992 29.8169C60.4946 36.4474 50.297 38.4626 43.5912 39.0301C76.4164 55.2513 88.0668 118.163 93.2553 146.18ZM421.103 111.352C424.045 85.5771 427.907 35.7757 390.493 35.1561H390.498C348.584 34.4612 340.054 95.63 337.327 125.667L337.302 125.944C335.953 140.767 329.191 215.124 353.761 214.14C367.393 213.59 375.292 193.357 377.984 180.709L380.133 180.68C379.496 192.395 379.154 198.25 378.43 209.965C388.113 209.889 392.942 210.005 402.532 210.544L418.011 128.464C405.601 128.099 393.139 128.036 380.723 128.256C379.994 133.375 379.629 135.934 378.893 141.059C380.647 141.03 381.527 141.019 383.268 140.996L383.289 140.996C380.805 149.277 377.84 153.573 374.006 153.672C367.943 153.828 366.93 143.503 369.402 124.243C371.84 105.249 375.709 94.7556 382.212 94.6803C387.916 94.6166 389.3 102.342 387.62 116.998C400.945 114.543 407.651 113.425 421.103 111.352ZM255.131 39.0128C267.089 38.9491 279.053 38.897 291.011 38.8507C294.665 69.7217 297.966 100.61 300.908 131.557C301.817 131.462 302.386 131.405 303.121 131.333L303.126 131.332L303.578 131.287L303.959 131.25C303.149 100.431 302.129 69.6233 300.902 38.8159C313.433 38.7696 325.959 38.7348 338.49 38.7059L323.92 214.076C312.246 215.785 306.42 216.856 294.868 219.444C292.297 188.857 289.361 158.322 286.071 127.804C285.751 127.84 285.473 127.872 285.216 127.901L284.567 127.975L284.186 128.018L283.008 128.152C284.519 159.196 285.822 190.247 286.923 221.309C274.878 224.274 268.901 225.994 257.134 229.914C256.471 167.07 255.813 104.22 255.155 41.3756L255.151 40.9717L255.131 39.0186V39.0128ZM179.884 39.3603C198.994 39.2966 218.104 39.2155 237.214 39.1113V39.1055C243.891 102.915 249.699 166.794 254.61 230.76C250.482 232.168 247.124 233.366 244.005 234.48L244.004 234.48L244.004 234.48C238.219 236.545 233.257 238.316 225.736 240.581C224.891 228.936 224.028 217.29 223.16 205.645C219.917 206.409 218.295 206.78 215.035 207.486C215.655 219.363 216.286 231.235 216.929 243.112C205.821 246.146 199.965 247.507 189.105 249.55L189.492 249.476C188.695 246.273 187.895 243.072 187.091 239.872C183.851 173.063 181.424 106.233 179.884 39.3603ZM187.091 239.872C187.252 243.193 187.415 246.514 187.58 249.835C188.1 249.738 188.608 249.643 189.105 249.55C176.806 251.898 170.459 252.825 157.804 254.12V254.126C150.803 229.567 143.611 205.072 136.228 180.628L135.843 180.645L135.401 180.665C134.697 180.697 134.145 180.721 133.268 180.756C138.7 205.448 144.045 230.163 149.292 254.896C137.177 255.857 131.074 256.095 118.809 256.089C105.733 183.9 92.6629 111.717 79.5929 39.5282C92.6861 39.534 105.785 39.5224 118.878 39.505C153.988 40.0957 170.625 74.8409 172.739 105.156C174.227 126.443 174.03 157.372 147.699 163.852C147.902 165.32 148.052 166.42 148.203 167.52C148.354 168.621 148.504 169.721 148.707 171.189C156.797 170.691 160.827 170.384 168.871 169.66C175.128 193.018 181.202 216.417 187.091 239.872ZM209.887 99.9327C211.207 127.723 212.568 155.513 213.969 183.304H213.975C216.958 182.759 218.446 182.476 221.422 181.897C219.326 154.442 217.189 126.993 215.018 99.5505C212.968 99.7069 211.943 99.7821 209.887 99.9327ZM126.128 110.223L131.224 144.071V144.076C132.684 144.36 134.218 144.308 135.11 144.273C141.636 144.03 143.993 137.857 142.435 126.518C140.924 115.516 136.795 109.627 130.049 109.794L130.009 109.795C129.077 109.819 127.516 109.858 126.128 110.223ZM442.182 38.6364C463.081 38.6653 483.986 38.7117 504.885 38.7754C500.397 60.0394 495.845 81.2861 491.242 102.527C480.164 101.757 474.599 101.432 463.428 100.894L462.883 103.215L462.856 103.329C461.649 108.467 460.879 111.741 459.514 117.537C467.372 118.018 471.292 118.295 479.092 118.932C477.955 123.342 477.129 126.535 476.272 129.853L476.269 129.864C475.573 132.556 474.856 135.331 473.933 138.905C466.353 138.118 462.542 137.776 454.892 137.174C454.202 140.113 453.684 142.319 453.165 144.522L453.152 144.58C452.635 146.776 452.117 148.976 451.43 151.906C461.842 152.855 467.013 153.434 477.268 154.801C470.673 175.839 464.129 196.895 457.637 217.962C441.4 214.424 424.902 212.096 408.328 210.909C419.609 153.481 430.889 96.0586 442.176 38.6306L442.182 38.6364Z" fill="#FBFBFB"/>
<path d="M257.727 305.526V246.341H285.668V254.028H264.451V272.061H284.21V279.719H264.451V297.839H285.929V305.526H257.727Z" fill="#FBFBFB"/>
<path d="M296.707 246.341L309.111 294.544H309.611L322.015 246.341H329.283L313.245 305.526H305.477L289.439 246.341H296.707Z" fill="#FBFBFB"/>
<path d="M370.379 275.933C370.379 282.253 369.508 287.686 367.768 292.232C366.027 296.76 363.64 300.247 360.608 302.694C357.591 305.121 354.16 306.335 350.315 306.335C346.456 306.335 343.011 305.121 339.979 302.694C336.961 300.247 334.582 296.75 332.841 292.203C331.1 287.657 330.23 282.233 330.23 275.933C330.23 269.614 331.1 264.191 332.841 259.663C334.582 255.117 336.961 251.63 339.979 249.202C343.011 246.755 346.456 245.532 350.315 245.532C354.16 245.532 357.591 246.755 360.608 249.202C363.64 251.63 366.027 255.117 367.768 259.663C369.508 264.191 370.379 269.614 370.379 275.933ZM363.72 275.933C363.72 271.117 363.132 267.061 361.957 263.767C360.797 260.453 359.201 257.949 357.17 256.253C355.153 254.539 352.869 253.681 350.315 253.681C347.748 253.681 345.455 254.539 343.439 256.253C341.422 257.949 339.827 260.453 338.651 263.767C337.491 267.061 336.911 271.117 336.911 275.933C336.911 280.75 337.491 284.815 338.651 288.129C339.827 291.423 341.422 293.928 343.439 295.642C345.455 297.338 347.748 298.185 350.315 298.185C352.869 298.185 355.153 297.338 357.17 295.642C359.201 293.928 360.797 291.423 361.957 288.129C363.132 284.815 363.72 280.75 363.72 275.933Z" fill="#FBFBFB"/>
<path d="M376.924 305.526V246.341H383.648V297.839H403.842V305.526H376.924Z" fill="#FBFBFB"/>
<path d="M438.334 246.341H445.079V285.268C445.079 289.41 444.347 293.08 442.882 296.278C441.416 299.457 439.356 301.962 436.701 303.792C434.047 305.603 430.935 306.508 427.366 306.508C423.812 306.508 420.707 305.603 418.052 303.792C415.398 301.962 413.338 299.457 411.872 296.278C410.407 293.08 409.674 289.41 409.674 285.268V246.341H416.399V284.545C416.399 287.223 416.841 289.603 417.726 291.683C418.625 293.764 419.895 295.402 421.534 296.596C423.173 297.771 425.117 298.359 427.366 298.359C429.629 298.359 431.58 297.771 433.22 296.596C434.874 295.402 436.136 293.764 437.006 291.683C437.891 289.603 438.334 287.223 438.334 284.545V246.341Z" fill="#FBFBFB"/>
<path d="M450.819 254.028V246.341H485.31V254.028H471.405V305.526H464.703V254.028H450.819Z" fill="#FBFBFB"/>
<path d="M497.818 246.341V305.526H491.094V246.341H497.818Z" fill="#FBFBFB"/>
<path d="M544.484 275.933C544.484 282.253 543.614 287.686 541.873 292.232C540.132 296.76 537.746 300.247 534.714 302.694C531.696 305.121 528.265 306.335 524.421 306.335C520.562 306.335 517.116 305.121 514.084 302.694C511.067 300.247 508.688 296.75 506.947 292.203C505.206 287.657 504.336 282.233 504.336 275.933C504.336 269.614 505.206 264.191 506.947 259.663C508.688 255.117 511.067 251.63 514.084 249.202C517.116 246.755 520.562 245.532 524.421 245.532C528.265 245.532 531.696 246.755 534.714 249.202C537.746 251.63 540.132 255.117 541.873 259.663C543.614 264.191 544.484 269.614 544.484 275.933ZM537.826 275.933C537.826 271.117 537.238 267.061 536.063 263.767C534.902 260.453 533.307 257.949 531.276 256.253C529.259 254.539 526.974 253.681 524.421 253.681C521.853 253.681 519.561 254.539 517.544 256.253C515.528 257.949 513.932 260.453 512.757 263.767C511.596 267.061 511.016 271.117 511.016 275.933C511.016 280.75 511.596 284.815 512.757 288.129C513.932 291.423 515.528 293.928 517.544 295.642C519.561 297.338 521.853 298.185 524.421 298.185C526.974 298.185 529.259 297.338 531.276 295.642C533.307 293.928 534.902 291.423 536.063 288.129C537.238 284.815 537.826 280.75 537.826 275.933Z" fill="#FBFBFB"/>
<path d="M587 246.341V305.526H580.82L558.167 262.12H557.754V305.526H551.029V246.341H557.253L579.928 289.805H580.341V246.341H587Z" fill="#FBFBFB"/>
</svg>
