<svg width="86" height="45" viewBox="0 0 86 45" fill="none" xmlns="http://www.w3.org/2000/svg">
<path fill-rule="evenodd" clip-rule="evenodd" d="M13.7035 21.4269C13.7138 21.4823 13.7239 21.5369 13.7338 21.5904L13.7347 21.5896C13.7414 21.626 13.7488 21.6657 13.7568 21.7086C14.2384 24.295 16.8877 38.5226 11.4193 37.8104C5.95544 37.0983 3.11129 26.3563 1.85434 21.609C1.79893 21.3997 1.7466 21.2021 1.69727 21.0175C1.67993 20.9526 1.66141 20.8836 1.64184 20.8106C0.71279 17.3478 -2.59395 5.02258 4.0748 5.15227C4.22627 5.15481 4.37349 5.16585 4.51985 5.18028C4.07736 4.82038 3.5787 4.29242 3.32597 3.59978C2.81286 2.1933 3.51403 0.646758 3.51403 0.646758C3.51403 0.646758 5.04743 1.38183 5.56055 2.78916C5.73074 3.25601 5.76648 3.73729 5.73925 4.17358C6.04303 3.27808 6.58594 2.17802 7.53814 1.38098C9.42892 -0.201208 12.2192 0.00929838 12.2192 0.00929838C12.2192 0.00929838 11.9426 2.78662 10.051 4.37051C8.88943 5.3424 7.39093 5.63779 6.40554 5.72097C11.2291 8.09865 12.941 17.3201 13.7035 21.4269ZM61.8792 16.3218C62.3115 12.5437 62.8791 5.24393 57.3811 5.15311H57.382C51.2228 5.05125 49.9694 14.0173 49.5686 18.4201L49.5649 18.4607C49.3668 20.6336 48.3732 31.5325 51.9836 31.3883C53.9867 31.3076 55.1474 28.3419 55.5431 26.4881L55.8588 26.4838C55.7652 28.201 55.715 29.0591 55.6086 30.7763C57.0314 30.7652 57.7411 30.7822 59.1502 30.8612L61.4248 18.8301C59.6012 18.7766 57.77 18.7672 55.9456 18.7995C55.8384 19.5499 55.7847 19.925 55.6767 20.6762C55.9336 20.672 56.063 20.6703 56.3174 20.667L56.3225 20.6669C55.9575 21.8807 55.5218 22.5105 54.9585 22.525C54.0675 22.5479 53.9186 21.0344 54.282 18.2113C54.6402 15.4272 55.2087 13.8891 56.1643 13.8781C57.0024 13.8687 57.2058 15.0011 56.9591 17.1494C58.9171 16.7895 59.9025 16.6257 61.8792 16.3218ZM37.4903 5.71846C39.2475 5.70913 41.0056 5.70149 42.7628 5.69469C43.2997 10.2197 43.7847 14.7473 44.217 19.2834C44.3495 19.2696 44.4329 19.2614 44.5396 19.2508L44.5417 19.2506L44.5429 19.2505L44.5433 19.2505L44.6655 19.2384C44.5463 14.721 44.3966 10.2053 44.2162 5.6896C46.0576 5.68281 47.8982 5.67772 49.7396 5.67347L47.5987 31.379C45.8832 31.6294 45.0271 31.7864 43.3295 32.1658C42.9517 27.6824 42.5202 23.2066 42.0369 18.7333L41.5868 18.7843C41.8089 23.3348 42.0003 27.8861 42.162 32.4392C40.392 32.8737 39.5139 33.1258 37.7847 33.7005C37.6876 24.5213 37.5913 15.3413 37.495 6.16205L37.4933 6.00669L37.4903 5.71931V5.71846ZM26.4332 5.76939C29.2413 5.76005 32.0494 5.74817 34.8575 5.73289V5.73204C35.8386 15.0851 36.6921 24.4484 37.4137 33.8244C36.8073 34.0307 36.3138 34.2064 35.8556 34.3696L35.8552 34.3697L35.8551 34.3697C35.0051 34.6724 34.276 34.932 33.1709 35.264C33.0467 33.557 32.9199 31.8501 32.7923 30.1431C32.3157 30.2551 32.0775 30.3095 31.5984 30.413C31.6894 32.1539 31.7822 33.894 31.8767 35.6349C30.2464 36.0792 29.3861 36.2788 27.7939 36.5775L27.8451 36.5678C27.7279 36.0982 27.6103 35.6287 27.4922 35.1595C27.016 25.367 26.6593 15.5713 26.4332 5.76939ZM27.4922 35.1595C27.5158 35.6465 27.5398 36.1334 27.5641 36.6204L27.7939 36.5775C25.9828 36.9226 25.0501 37.0585 23.1887 37.2485V37.2494C22.1599 33.6496 21.103 30.0591 20.0181 26.4762L19.8961 26.4816C19.7929 26.4863 19.7119 26.4899 19.5833 26.4949C20.3814 30.1142 21.1669 33.737 21.9378 37.3623C20.1576 37.5032 19.2607 37.538 17.4585 37.5371C15.537 26.9558 13.6164 16.3753 11.6959 5.794C13.6199 5.79485 15.5447 5.79315 17.4687 5.7906C22.6279 5.87718 25.0727 10.9701 25.3833 15.4136C25.602 18.5339 25.573 23.0674 21.7038 24.0172C21.7336 24.2324 21.7557 24.3937 21.7778 24.5549C21.8 24.7162 21.8221 24.8775 21.8519 25.0926C23.0406 25.0197 23.6329 24.9747 24.8148 24.8686C25.7343 28.2922 26.6267 31.7217 27.4922 35.1595ZM30.8419 14.648C31.0359 18.7215 31.2359 22.7949 31.4418 26.8684H31.4427C31.8809 26.7886 32.0996 26.747 32.537 26.6621C32.2289 22.6379 31.9149 18.6145 31.5958 14.592C31.2946 14.6149 31.144 14.6259 30.8419 14.648ZM18.534 16.1563L19.2829 21.1177V21.1185C19.4973 21.1601 19.7228 21.1525 19.8539 21.1474C20.8129 21.1117 21.1592 20.2069 20.9303 18.5449C20.7082 16.9321 20.1015 16.0689 19.1101 16.0935L19.1043 16.0937H19.1043C18.9674 16.0971 18.7379 16.1028 18.534 16.1563ZM64.9766 5.66326C68.0477 5.66751 71.1196 5.6743 74.1906 5.68363C73.5312 8.80048 72.8623 11.9148 72.1858 15.0282C70.558 14.9153 69.7402 14.8678 68.0987 14.7889L68.0186 15.129C67.8389 15.8918 67.7257 16.3725 67.5235 17.2284C68.6782 17.2988 69.2543 17.3396 70.4005 17.4329C70.234 18.0768 70.113 18.5438 69.9875 19.0282C69.8846 19.4249 69.7788 19.8334 69.6424 20.3605C68.5285 20.2451 67.9685 20.195 66.8445 20.1067C66.7428 20.5387 66.6664 20.8626 66.59 21.1864C66.5136 21.5102 66.4373 21.834 66.3356 22.2661C67.8656 22.4053 68.6255 22.4902 70.1325 22.6905C69.1633 25.7742 68.2017 28.8605 67.2478 31.9485C64.8618 31.4299 62.4374 31.0887 60.002 30.9147C61.6597 22.497 63.3173 14.0801 64.9758 5.66241L64.9766 5.66326Z" fill="url(#paint0_linear_1076_17174)"/>
<path d="M37.7357 44.7836V36.1084H41.8312V37.2351H38.7213V39.8783H41.6175V41.0009H38.7213V43.6568H41.8695V44.7836H37.7357Z" fill="url(#paint1_linear_1076_17174)"/>
<path d="M43.4492 36.1084L45.2673 43.1739H45.3407L47.1588 36.1084H48.2242L45.8734 44.7836H44.7347L42.3839 36.1084H43.4492Z" fill="url(#paint2_linear_1076_17174)"/>
<path d="M54.2479 40.446C54.2479 41.3722 54.1203 42.1686 53.8652 42.835C53.61 43.4987 53.2602 44.0098 52.8158 44.3684C52.3735 44.7242 51.8706 44.9022 51.3071 44.9022C50.7414 44.9022 50.2364 44.7242 49.792 44.3684C49.3497 44.0098 49.0009 43.4972 48.7457 42.8308C48.4906 42.1643 48.363 41.3694 48.363 40.446C48.363 39.5197 48.4906 38.7247 48.7457 38.0611C49.0009 37.3947 49.3497 36.8835 49.792 36.5277C50.2364 36.1691 50.7414 35.9897 51.3071 35.9897C51.8706 35.9897 52.3735 36.1691 52.8158 36.5277C53.2602 36.8835 53.61 37.3947 53.8652 38.0611C54.1203 38.7247 54.2479 39.5197 54.2479 40.446ZM53.2719 40.446C53.2719 39.74 53.1858 39.1455 53.0135 38.6626C52.8434 38.1769 52.6095 37.8098 52.3118 37.5613C52.0162 37.3099 51.6813 37.1843 51.3071 37.1843C50.9307 37.1843 50.5947 37.3099 50.2991 37.5613C50.0035 37.8098 49.7696 38.1769 49.5974 38.6626C49.4273 39.1455 49.3422 39.74 49.3422 40.446C49.3422 41.1519 49.4273 41.7478 49.5974 42.2335C49.7696 42.7164 50.0035 43.0835 50.2991 43.3349C50.5947 43.5834 50.9307 43.7076 51.3071 43.7076C51.6813 43.7076 52.0162 43.5834 52.3118 43.3349C52.6095 43.0835 52.8434 42.7164 53.0135 42.2335C53.1858 41.7478 53.2719 41.1519 53.2719 40.446Z" fill="url(#paint3_linear_1076_17174)"/>
<path d="M55.2073 44.7836V36.1084H56.1929V43.6568H59.1529V44.7836H55.2073Z" fill="url(#paint4_linear_1076_17174)"/>
<path d="M64.2086 36.1084H65.1974V41.8142C65.1974 42.4213 65.09 42.9593 64.8753 43.4281C64.6605 43.894 64.3585 44.2611 63.9694 44.5294C63.5802 44.7948 63.1241 44.9276 62.601 44.9276C62.08 44.9276 61.625 44.7948 61.2358 44.5294C60.8467 44.2611 60.5447 43.894 60.33 43.4281C60.1152 42.9593 60.0078 42.4213 60.0078 41.8142V36.1084H60.9934V41.7083C60.9934 42.1008 61.0583 42.4496 61.188 42.7545C61.3198 43.0595 61.5059 43.2996 61.7462 43.4746C61.9865 43.6469 62.2714 43.733 62.601 43.733C62.9327 43.733 63.2188 43.6469 63.459 43.4746C63.7015 43.2996 63.8865 43.0595 64.014 42.7545C64.1438 42.4496 64.2086 42.1008 64.2086 41.7083V36.1084Z" fill="url(#paint5_linear_1076_17174)"/>
<path d="M66.0388 37.2351V36.1084H71.0944V37.2351H69.0562V44.7836H68.0738V37.2351H66.0388Z" fill="url(#paint6_linear_1076_17174)"/>
<path d="M72.9277 36.1084V44.7836H71.9421V36.1084H72.9277Z" fill="url(#paint7_linear_1076_17174)"/>
<path d="M79.768 40.446C79.768 41.3722 79.6405 42.1686 79.3853 42.835C79.1301 43.4987 78.7803 44.0098 78.3359 44.3684C77.8936 44.7242 77.3907 44.9022 76.8272 44.9022C76.2615 44.9022 75.7565 44.7242 75.3121 44.3684C74.8698 44.0098 74.521 43.4972 74.2658 42.8308C74.0107 42.1643 73.8831 41.3694 73.8831 40.446C73.8831 39.5197 74.0107 38.7247 74.2658 38.0611C74.521 37.3947 74.8698 36.8835 75.3121 36.5277C75.7565 36.1691 76.2615 35.9897 76.8272 35.9897C77.3907 35.9897 77.8936 36.1691 78.3359 36.5277C78.7803 36.8835 79.1301 37.3947 79.3853 38.0611C79.6405 38.7247 79.768 39.5197 79.768 40.446ZM78.792 40.446C78.792 39.74 78.7059 39.1455 78.5336 38.6626C78.3635 38.1769 78.1296 37.8098 77.8319 37.5613C77.5363 37.3099 77.2014 37.1843 76.8272 37.1843C76.4508 37.1843 76.1148 37.3099 75.8192 37.5613C75.5236 37.8098 75.2897 38.1769 75.1175 38.6626C74.9474 39.1455 74.8623 39.74 74.8623 40.446C74.8623 41.1519 74.9474 41.7478 75.1175 42.2335C75.2897 42.7164 75.5236 43.0835 75.8192 43.3349C76.1148 43.5834 76.4508 43.7076 76.8272 43.7076C77.2014 43.7076 77.5363 43.5834 77.8319 43.3349C78.1296 43.0835 78.3635 42.7164 78.5336 42.2335C78.7059 41.7478 78.792 41.1519 78.792 40.446Z" fill="url(#paint8_linear_1076_17174)"/>
<path d="M85.9999 36.1084V44.7836H85.0941L81.7736 38.4212H81.713V44.7836H80.7274V36.1084H81.6396L84.9633 42.4792H85.0239V36.1084H85.9999Z" fill="url(#paint9_linear_1076_17174)"/>
<defs>
<linearGradient id="paint0_linear_1076_17174" x1="72.6451" y1="0.775941" x2="19.6732" y2="54.2476" gradientUnits="userSpaceOnUse">
<stop stop-color="#FB8BCE"/>
<stop offset="0.253125" stop-color="#FC4AB5"/>
<stop offset="0.560417" stop-color="#871CD3"/>
<stop offset="1" stop-color="#00C09B"/>
</linearGradient>
<linearGradient id="paint1_linear_1076_17174" x1="84.9944" y1="36.173" x2="77.0229" y2="58.333" gradientUnits="userSpaceOnUse">
<stop stop-color="#FB8BCE"/>
<stop offset="0.253125" stop-color="#FC4AB5"/>
<stop offset="0.560417" stop-color="#871CD3"/>
<stop offset="1" stop-color="#00C09B"/>
</linearGradient>
<linearGradient id="paint2_linear_1076_17174" x1="84.9944" y1="36.173" x2="77.0229" y2="58.333" gradientUnits="userSpaceOnUse">
<stop stop-color="#FB8BCE"/>
<stop offset="0.253125" stop-color="#FC4AB5"/>
<stop offset="0.560417" stop-color="#871CD3"/>
<stop offset="1" stop-color="#00C09B"/>
</linearGradient>
<linearGradient id="paint3_linear_1076_17174" x1="84.9944" y1="36.173" x2="77.0229" y2="58.333" gradientUnits="userSpaceOnUse">
<stop stop-color="#FB8BCE"/>
<stop offset="0.253125" stop-color="#FC4AB5"/>
<stop offset="0.560417" stop-color="#871CD3"/>
<stop offset="1" stop-color="#00C09B"/>
</linearGradient>
<linearGradient id="paint4_linear_1076_17174" x1="84.9944" y1="36.173" x2="77.0229" y2="58.333" gradientUnits="userSpaceOnUse">
<stop stop-color="#FB8BCE"/>
<stop offset="0.253125" stop-color="#FC4AB5"/>
<stop offset="0.560417" stop-color="#871CD3"/>
<stop offset="1" stop-color="#00C09B"/>
</linearGradient>
<linearGradient id="paint5_linear_1076_17174" x1="84.9944" y1="36.173" x2="77.0229" y2="58.333" gradientUnits="userSpaceOnUse">
<stop stop-color="#FB8BCE"/>
<stop offset="0.253125" stop-color="#FC4AB5"/>
<stop offset="0.560417" stop-color="#871CD3"/>
<stop offset="1" stop-color="#00C09B"/>
</linearGradient>
<linearGradient id="paint6_linear_1076_17174" x1="84.9944" y1="36.173" x2="77.0229" y2="58.333" gradientUnits="userSpaceOnUse">
<stop stop-color="#FB8BCE"/>
<stop offset="0.253125" stop-color="#FC4AB5"/>
<stop offset="0.560417" stop-color="#871CD3"/>
<stop offset="1" stop-color="#00C09B"/>
</linearGradient>
<linearGradient id="paint7_linear_1076_17174" x1="84.9944" y1="36.173" x2="77.0229" y2="58.333" gradientUnits="userSpaceOnUse">
<stop stop-color="#FB8BCE"/>
<stop offset="0.253125" stop-color="#FC4AB5"/>
<stop offset="0.560417" stop-color="#871CD3"/>
<stop offset="1" stop-color="#00C09B"/>
</linearGradient>
<linearGradient id="paint8_linear_1076_17174" x1="84.9944" y1="36.173" x2="77.0229" y2="58.333" gradientUnits="userSpaceOnUse">
<stop stop-color="#FB8BCE"/>
<stop offset="0.253125" stop-color="#FC4AB5"/>
<stop offset="0.560417" stop-color="#871CD3"/>
<stop offset="1" stop-color="#00C09B"/>
</linearGradient>
<linearGradient id="paint9_linear_1076_17174" x1="84.9944" y1="36.173" x2="77.0229" y2="58.333" gradientUnits="userSpaceOnUse">
<stop stop-color="#FB8BCE"/>
<stop offset="0.253125" stop-color="#FC4AB5"/>
<stop offset="0.560417" stop-color="#871CD3"/>
<stop offset="1" stop-color="#00C09B"/>
</linearGradient>
</defs>
</svg>
