<svg width="320" height="224" viewBox="0 0 320 224" fill="none" xmlns="http://www.w3.org/2000/svg">
<path d="M0 20C0 8.95431 8.95431 0 20 0H300C311.046 0 320 8.95431 320 20V204C320 215.046 311.046 224 300 224H20C8.95431 224 0 215.046 0 204V20Z" fill="url(#paint0_linear_547_1157)"/>
<g clip-path="url(#clip0_547_1157)">
<path d="M170.88 175.746L186.453 154.92L136.321 112L186.453 69.0798L170.88 48.2531L108.589 101.586C107.129 102.836 105.951 104.42 105.141 106.223C104.331 108.025 103.911 110 103.911 112C103.911 114 104.331 115.974 105.141 117.777C105.951 119.579 107.129 121.164 108.589 122.413L170.88 175.746ZM286.12 48.2531L270.547 69.0798L320.679 112L270.547 154.92L286.12 175.746L348.412 122.413C349.871 121.164 351.049 119.579 351.859 117.777C352.669 115.974 353.089 114 353.089 112C353.089 110 352.669 108.025 351.859 106.223C351.049 104.42 349.871 102.836 348.412 101.586L286.12 48.2531ZM265.576 -5.12022L215.743 234.88L191.412 229.093L241.245 -10.9069L265.576 -5.12022Z" fill="#6F9FE8" fill-opacity="0.4"/>
</g>
<path d="M20.008 208V185.6H29.8C32.232 185.6 34.3653 186.069 36.2 187.008C38.0347 187.947 39.464 189.248 40.488 190.912C41.512 192.576 42.024 194.539 42.024 196.8C42.024 199.04 41.512 201.003 40.488 202.688C39.464 204.352 38.0347 205.653 36.2 206.592C34.3653 207.531 32.232 208 29.8 208H20.008ZM24.168 204.48H29.608C31.2933 204.48 32.744 204.16 33.96 203.52C35.1973 202.88 36.1467 201.984 36.808 200.832C37.4907 199.68 37.832 198.336 37.832 196.8C37.832 195.243 37.4907 193.899 36.808 192.768C36.1467 191.616 35.1973 190.72 33.96 190.08C32.744 189.44 31.2933 189.12 29.608 189.12H24.168V204.48ZM53.1335 208.224C51.2348 208.224 49.5708 207.851 48.1415 207.104C46.7335 206.336 45.6348 205.291 44.8455 203.968C44.0775 202.645 43.6935 201.141 43.6935 199.456C43.6935 197.749 44.0668 196.245 44.8135 194.944C45.5815 193.621 46.6268 192.587 47.9495 191.84C49.2935 191.093 50.8188 190.72 52.5255 190.72C54.1895 190.72 55.6722 191.083 56.9735 191.808C58.2748 192.533 59.2988 193.557 60.0455 194.88C60.7922 196.203 61.1655 197.76 61.1655 199.552C61.1655 199.723 61.1548 199.915 61.1335 200.128C61.1335 200.341 61.1228 200.544 61.1015 200.736H46.8615V198.08H58.9895L57.4215 198.912C57.4428 197.931 57.2402 197.067 56.8135 196.32C56.3868 195.573 55.8002 194.987 55.0535 194.56C54.3282 194.133 53.4855 193.92 52.5255 193.92C51.5442 193.92 50.6802 194.133 49.9335 194.56C49.2082 194.987 48.6322 195.584 48.2055 196.352C47.8002 197.099 47.5975 197.984 47.5975 199.008V199.648C47.5975 200.672 47.8322 201.579 48.3015 202.368C48.7708 203.157 49.4322 203.765 50.2855 204.192C51.1388 204.619 52.1202 204.832 53.2295 204.832C54.1895 204.832 55.0535 204.683 55.8215 204.384C56.5895 204.085 57.2722 203.616 57.8695 202.976L60.0135 205.44C59.2455 206.336 58.2748 207.029 57.1015 207.52C55.9495 207.989 54.6268 208.224 53.1335 208.224ZM68.2793 208L60.9513 190.912H65.1113L71.4153 205.984H69.3673L75.8953 190.912H79.7353L72.4073 208H68.2793ZM93.351 195.904H104.519V199.424H93.351V195.904ZM93.703 208H89.543V185.6H105.895V189.088H93.703V208ZM115.337 208.224C113.887 208.224 112.607 207.957 111.497 207.424C110.388 206.869 109.524 206.037 108.905 204.928C108.287 203.797 107.977 202.379 107.977 200.672V190.912H111.977V200.128C111.977 201.664 112.319 202.816 113.001 203.584C113.705 204.331 114.697 204.704 115.977 204.704C116.916 204.704 117.727 204.512 118.409 204.128C119.113 203.744 119.657 203.168 120.041 202.4C120.447 201.632 120.649 200.683 120.649 199.552V190.912H124.649V208H120.841V203.392L121.513 204.8C120.937 205.909 120.095 206.763 118.985 207.36C117.876 207.936 116.66 208.224 115.337 208.224ZM128.926 208V184.256H132.926V208H128.926ZM137.216 208V184.256H141.216V208H137.216ZM160.718 208.32C158.969 208.32 157.294 208.075 155.694 207.584C154.094 207.072 152.825 206.421 151.886 205.632L153.326 202.4C154.222 203.104 155.332 203.691 156.654 204.16C157.977 204.629 159.332 204.864 160.718 204.864C161.892 204.864 162.841 204.736 163.566 204.48C164.292 204.224 164.825 203.883 165.166 203.456C165.508 203.008 165.678 202.507 165.678 201.952C165.678 201.269 165.433 200.725 164.942 200.32C164.452 199.893 163.812 199.563 163.022 199.328C162.254 199.072 161.39 198.837 160.43 198.624C159.492 198.411 158.542 198.165 157.582 197.888C156.644 197.589 155.78 197.216 154.99 196.768C154.222 196.299 153.593 195.68 153.102 194.912C152.612 194.144 152.366 193.163 152.366 191.968C152.366 190.752 152.686 189.643 153.326 188.64C153.988 187.616 154.98 186.805 156.302 186.208C157.646 185.589 159.342 185.28 161.39 185.28C162.734 185.28 164.068 185.451 165.39 185.792C166.713 186.133 167.865 186.624 168.846 187.264L167.534 190.496C166.532 189.899 165.497 189.461 164.43 189.184C163.364 188.885 162.34 188.736 161.358 188.736C160.206 188.736 159.268 188.875 158.542 189.152C157.838 189.429 157.316 189.792 156.974 190.24C156.654 190.688 156.494 191.2 156.494 191.776C156.494 192.459 156.729 193.013 157.198 193.44C157.689 193.845 158.318 194.165 159.086 194.4C159.876 194.635 160.75 194.869 161.71 195.104C162.67 195.317 163.62 195.563 164.558 195.84C165.518 196.117 166.382 196.48 167.15 196.928C167.94 197.376 168.569 197.984 169.038 198.752C169.529 199.52 169.774 200.491 169.774 201.664C169.774 202.859 169.444 203.968 168.782 204.992C168.142 205.995 167.15 206.805 165.806 207.424C164.462 208.021 162.766 208.32 160.718 208.32ZM178.987 208.224C177.11 208.224 175.659 207.744 174.635 206.784C173.611 205.803 173.099 204.363 173.099 202.464V187.136H177.099V202.368C177.099 203.179 177.302 203.808 177.707 204.256C178.134 204.704 178.721 204.928 179.467 204.928C180.363 204.928 181.11 204.693 181.707 204.224L182.827 207.072C182.358 207.456 181.782 207.744 181.099 207.936C180.417 208.128 179.713 208.224 178.987 208.224ZM170.283 194.24V191.04H181.675V194.24H170.283ZM195.686 208V204.544L195.462 203.808V197.76C195.462 196.587 195.11 195.68 194.406 195.04C193.702 194.379 192.635 194.048 191.206 194.048C190.246 194.048 189.296 194.197 188.358 194.496C187.44 194.795 186.662 195.211 186.022 195.744L184.454 192.832C185.371 192.128 186.459 191.605 187.718 191.264C188.998 190.901 190.32 190.72 191.686 190.72C194.16 190.72 196.07 191.317 197.414 192.512C198.779 193.685 199.462 195.509 199.462 197.984V208H195.686ZM190.31 208.224C189.03 208.224 187.91 208.011 186.95 207.584C185.99 207.136 185.243 206.528 184.71 205.76C184.198 204.971 183.942 204.085 183.942 203.104C183.942 202.144 184.166 201.28 184.614 200.512C185.083 199.744 185.84 199.136 186.886 198.688C187.931 198.24 189.318 198.016 191.046 198.016H196.006V200.672H191.334C189.968 200.672 189.051 200.896 188.582 201.344C188.112 201.771 187.878 202.304 187.878 202.944C187.878 203.669 188.166 204.245 188.742 204.672C189.318 205.099 190.118 205.312 191.142 205.312C192.123 205.312 192.998 205.088 193.766 204.64C194.555 204.192 195.12 203.531 195.462 202.656L196.134 205.056C195.75 206.059 195.056 206.837 194.054 207.392C193.072 207.947 191.824 208.224 190.31 208.224ZM211.506 208.224C209.714 208.224 208.114 207.851 206.706 207.104C205.32 206.336 204.232 205.291 203.442 203.968C202.653 202.645 202.258 201.141 202.258 199.456C202.258 197.749 202.653 196.245 203.442 194.944C204.232 193.621 205.32 192.587 206.706 191.84C208.114 191.093 209.714 190.72 211.506 190.72C213.17 190.72 214.632 191.061 215.89 191.744C217.17 192.405 218.141 193.387 218.802 194.688L215.73 196.48C215.218 195.669 214.589 195.072 213.842 194.688C213.117 194.304 212.328 194.112 211.474 194.112C210.493 194.112 209.608 194.325 208.818 194.752C208.029 195.179 207.41 195.797 206.962 196.608C206.514 197.397 206.29 198.347 206.29 199.456C206.29 200.565 206.514 201.525 206.962 202.336C207.41 203.125 208.029 203.733 208.818 204.16C209.608 204.587 210.493 204.8 211.474 204.8C212.328 204.8 213.117 204.608 213.842 204.224C214.589 203.84 215.218 203.243 215.73 202.432L218.802 204.224C218.141 205.504 217.17 206.496 215.89 207.2C214.632 207.883 213.17 208.224 211.506 208.224ZM224.408 204.192L224.504 199.168L233.432 190.912H238.232L230.648 198.528L228.536 200.288L224.408 204.192ZM221.144 208V184.256H225.144V208H221.144ZM234.04 208L227.8 200.288L230.328 197.088L238.904 208H234.04Z" fill="#FBFBFB"/>
<defs>
<linearGradient id="paint0_linear_547_1157" x1="350.5" y1="-34.5" x2="-57" y2="237.5" gradientUnits="userSpaceOnUse">
<stop stop-color="#4A7BFA"/>
<stop offset="1" stop-color="#0E2B77"/>
</linearGradient>
<clipPath id="clip0_547_1157">
<rect width="228" height="224" fill="white" transform="translate(92)"/>
</clipPath>
</defs>
</svg>
