<svg width="320" height="224" viewBox="0 0 320 224" fill="none" xmlns="http://www.w3.org/2000/svg">
<rect width="320" height="224" rx="20" fill="url(#paint0_linear_513_1314)"/>
<g clip-path="url(#clip0_513_1314)">
<path d="M123.577 93.5C142.171 93.5 157.231 79.5156 157.231 62.25C157.231 44.9844 142.171 31 123.577 31C104.983 31 89.9231 44.9844 89.9231 62.25C89.9231 79.5156 104.983 93.5 123.577 93.5ZM278.385 93.5C296.978 93.5 312.038 79.5156 312.038 62.25C312.038 44.9844 296.978 31 278.385 31C259.791 31 244.731 44.9844 244.731 62.25C244.731 79.5156 259.791 93.5 278.385 93.5ZM63 147.68C63 152.25 67.0385 156 71.9603 156H161.732C161.816 156 161.9 156 162.026 156C150.837 146.82 143.811 133.422 143.811 118.5C143.811 115.531 144.106 112.641 144.611 109.789C138.889 107.328 132.537 106 125.849 106H107.886C83.1082 106 63 124.672 63 147.68ZM197.615 156C207.712 156 216.924 152.563 223.992 146.898C225.043 145.453 226.179 144.047 227.357 142.719C228.493 141.43 229.755 140.336 231.143 139.477C235.476 133.461 238 126.273 238 118.5C238 97.7969 219.911 81 197.615 81C175.32 81 157.231 97.7969 157.231 118.5C157.231 139.203 175.32 156 197.615 156ZM225.127 179.516C220.794 177.211 217.513 173.188 216.377 168.5H172.922C141.96 168.5 116.846 191.82 116.846 220.57C116.846 226.312 121.852 231 128.078 231H254.49C253.607 228.969 253.144 226.742 253.144 224.594V223.422C252.597 223.148 252.008 222.836 251.462 222.523L250.368 223.109C243.3 226.898 233.331 226.234 227.357 219.32C225.464 217.133 223.739 214.828 222.141 212.445L222.099 212.367L222.056 212.289L221.047 210.688L221.005 210.609L220.963 210.531C219.532 208.109 218.27 205.609 217.177 202.992C213.727 194.711 218.102 186.352 225.169 182.562L226.305 181.977C226.305 181.664 226.305 181.391 226.305 181.078C226.305 180.766 226.305 180.492 226.305 180.18L225.169 179.594L225.127 179.516ZM287.345 106H269.424C262.736 106 256.383 107.367 250.662 109.789C251.209 112.602 251.462 115.531 251.462 118.5C251.462 125.297 249.989 131.742 247.381 137.641C248.433 137.992 249.442 138.422 250.368 138.93L251.462 139.516C252.008 139.203 252.555 138.891 253.144 138.617V137.445C253.144 129.867 258.739 122.172 268.204 120.805C271.528 120.336 274.935 120.062 278.385 120.062C281.834 120.062 285.242 120.297 288.565 120.805C298.03 122.172 303.625 129.867 303.625 137.445V138.617C304.172 138.891 304.761 139.203 305.308 139.516L306.401 138.93C313.469 135.141 323.439 135.805 329.412 142.719C330.38 143.812 331.305 144.984 332.189 146.117C331.305 123.813 311.576 106 287.345 106ZM325.752 170.023C328.403 168.617 329.749 165.688 328.613 162.992C327.73 160.844 326.678 158.773 325.5 156.781L324.532 155.219C323.228 153.227 321.798 151.352 320.242 149.555C318.306 147.328 314.899 146.938 312.249 148.383L304.635 152.484C300.891 149.516 296.6 147.172 291.846 145.609V137.406C291.846 134.555 289.785 132.016 286.756 131.586C284.022 131.195 281.245 131 278.385 131C275.524 131 272.748 131.195 270.013 131.586C266.984 132.016 264.923 134.555 264.923 137.406V145.609C260.212 147.172 255.879 149.516 252.135 152.484L244.478 148.383C241.828 146.977 238.421 147.367 236.486 149.555C234.929 151.352 233.499 153.266 232.195 155.258L231.227 156.781C230.049 158.773 228.998 160.844 228.114 162.992C227.02 165.648 228.324 168.578 230.975 169.984L238.631 174.086C238.21 176.312 237.958 178.617 237.958 180.961C237.958 183.305 238.21 185.609 238.631 187.797L230.975 191.898C228.324 193.305 226.978 196.234 228.114 198.891C228.998 201.039 230.049 203.07 231.227 205.062L232.237 206.664C233.499 208.656 234.929 210.531 236.486 212.328C238.421 214.555 241.828 214.945 244.478 213.5L252.135 209.516C255.879 212.484 260.212 214.828 264.923 216.391V224.594C264.923 227.445 266.984 229.984 270.013 230.414C272.748 230.805 275.524 231 278.385 231C281.245 231 284.022 230.805 286.756 230.414C289.785 229.984 291.846 227.445 291.846 224.594V216.391C296.558 214.828 300.891 212.484 304.635 209.516L312.291 213.617C314.941 215.023 318.349 214.633 320.284 212.445C321.84 210.648 323.27 208.773 324.532 206.781L325.542 205.141C326.72 203.148 327.772 201.117 328.655 198.969C329.749 196.312 328.445 193.383 325.794 191.977L318.138 187.875C318.559 185.648 318.811 183.344 318.811 181.039C318.811 178.734 318.559 176.391 318.138 174.164L325.794 170.062L325.752 170.023ZM295.212 181C295.212 189.633 287.681 196.625 278.385 196.625C269.088 196.625 261.558 189.633 261.558 181C261.558 172.367 269.088 165.375 278.385 165.375C287.681 165.375 295.212 172.367 295.212 181Z" fill="#F0F98E" fill-opacity="0.4"/>
</g>
<path d="M30.9933 191.125C30.8873 190.133 30.4403 189.36 29.6524 188.807C28.8721 188.254 27.857 187.977 26.607 187.977C25.7282 187.977 24.9744 188.11 24.3456 188.375C23.7168 188.64 23.2358 189 22.9024 189.455C22.5691 189.909 22.3986 190.428 22.3911 191.011C22.3911 191.496 22.5009 191.917 22.7206 192.273C22.9479 192.629 23.2547 192.932 23.6411 193.182C24.0274 193.424 24.4555 193.629 24.9252 193.795C25.3949 193.962 25.8683 194.102 26.3456 194.216L28.5274 194.761C29.4062 194.966 30.2509 195.242 31.0615 195.591C31.8797 195.939 32.6108 196.379 33.2547 196.909C33.9062 197.439 34.4214 198.08 34.8002 198.83C35.1789 199.58 35.3683 200.458 35.3683 201.466C35.3683 202.83 35.0199 204.03 34.3229 205.068C33.6259 206.098 32.6183 206.905 31.3002 207.489C29.9895 208.064 28.4024 208.352 26.5388 208.352C24.7282 208.352 23.1562 208.072 21.8229 207.511C20.4971 206.951 19.4592 206.133 18.7092 205.057C17.9668 203.981 17.5653 202.67 17.5047 201.125H21.6524C21.713 201.936 21.963 202.61 22.4024 203.148C22.8418 203.686 23.4138 204.087 24.1183 204.352C24.8305 204.617 25.6259 204.75 26.5047 204.75C27.4214 204.75 28.2244 204.614 28.9138 204.341C29.6108 204.061 30.1562 203.674 30.5502 203.182C30.9441 202.682 31.1449 202.098 31.1524 201.432C31.1449 200.826 30.9668 200.326 30.6183 199.932C30.2699 199.53 29.7812 199.197 29.1524 198.932C28.5312 198.659 27.8039 198.417 26.9706 198.205L24.3229 197.523C22.4062 197.03 20.8911 196.284 19.7774 195.284C18.6714 194.277 18.1183 192.939 18.1183 191.273C18.1183 189.902 18.4895 188.701 19.232 187.67C19.982 186.64 21.0009 185.841 22.2888 185.273C23.5767 184.697 25.035 184.409 26.6638 184.409C28.3153 184.409 29.7623 184.697 31.0047 185.273C32.2547 185.841 33.2358 186.633 33.9479 187.648C34.66 188.655 35.0274 189.814 35.0502 191.125H30.9933ZM45.5987 208.341C43.8941 208.341 42.4169 207.966 41.1669 207.216C39.9169 206.466 38.9472 205.417 38.2578 204.068C37.576 202.72 37.235 201.144 37.235 199.341C37.235 197.538 37.576 195.958 38.2578 194.602C38.9472 193.246 39.9169 192.193 41.1669 191.443C42.4169 190.693 43.8941 190.318 45.5987 190.318C47.3032 190.318 48.7805 190.693 50.0305 191.443C51.2805 192.193 52.2464 193.246 52.9282 194.602C53.6176 195.958 53.9623 197.538 53.9623 199.341C53.9623 201.144 53.6176 202.72 52.9282 204.068C52.2464 205.417 51.2805 206.466 50.0305 207.216C48.7805 207.966 47.3032 208.341 45.5987 208.341ZM45.6214 205.045C46.5456 205.045 47.3184 204.792 47.9396 204.284C48.5608 203.769 49.0229 203.08 49.326 202.216C49.6366 201.352 49.7919 200.39 49.7919 199.33C49.7919 198.261 49.6366 197.295 49.326 196.432C49.0229 195.561 48.5608 194.867 47.9396 194.352C47.3184 193.837 46.5456 193.58 45.6214 193.58C44.6744 193.58 43.8866 193.837 43.2578 194.352C42.6366 194.867 42.1706 195.561 41.86 196.432C41.557 197.295 41.4055 198.261 41.4055 199.33C41.4055 200.39 41.557 201.352 41.86 202.216C42.1706 203.08 42.6366 203.769 43.2578 204.284C43.8866 204.792 44.6744 205.045 45.6214 205.045ZM65.3347 190.545V193.727H55.0165V190.545H65.3347ZM57.5961 208V188.898C57.5961 187.723 57.8385 186.746 58.3233 185.966C58.8158 185.186 59.4749 184.602 60.3006 184.216C61.1264 183.83 62.043 183.636 63.0506 183.636C63.7627 183.636 64.3953 183.693 64.9483 183.807C65.5014 183.92 65.9105 184.023 66.1756 184.114L65.3574 187.295C65.1832 187.242 64.9635 187.189 64.6983 187.136C64.4332 187.076 64.1377 187.045 63.812 187.045C63.0468 187.045 62.5052 187.231 62.187 187.602C61.8764 187.966 61.7211 188.489 61.7211 189.17V208H57.5961ZM76.3122 190.545V193.727H66.2781V190.545H76.3122ZM68.7554 186.364H72.869V202.75C72.869 203.303 72.9524 203.727 73.119 204.023C73.2933 204.311 73.5205 204.508 73.8008 204.614C74.0811 204.72 74.3917 204.773 74.7327 204.773C74.9902 204.773 75.2251 204.754 75.4372 204.716C75.6569 204.678 75.8236 204.644 75.9372 204.614L76.6304 207.83C76.4107 207.905 76.0963 207.989 75.6872 208.08C75.2857 208.17 74.7933 208.223 74.2099 208.239C73.1796 208.269 72.2516 208.114 71.4258 207.773C70.6001 207.424 69.9448 206.886 69.4599 206.159C68.9827 205.432 68.7478 204.523 68.7554 203.432V186.364ZM98.5996 191.125C98.4935 190.133 98.0466 189.36 97.2587 188.807C96.4784 188.254 95.4632 187.977 94.2132 187.977C93.3344 187.977 92.5806 188.11 91.9519 188.375C91.3231 188.64 90.842 189 90.5087 189.455C90.1753 189.909 90.0049 190.428 89.9973 191.011C89.9973 191.496 90.1072 191.917 90.3269 192.273C90.5541 192.629 90.8609 192.932 91.2473 193.182C91.6337 193.424 92.0617 193.629 92.5314 193.795C93.0011 193.962 93.4746 194.102 93.9519 194.216L96.1337 194.761C97.0125 194.966 97.8572 195.242 98.6678 195.591C99.4859 195.939 100.217 196.379 100.861 196.909C101.512 197.439 102.028 198.08 102.406 198.83C102.785 199.58 102.975 200.458 102.975 201.466C102.975 202.83 102.626 204.03 101.929 205.068C101.232 206.098 100.225 206.905 98.9064 207.489C97.5958 208.064 96.0087 208.352 94.145 208.352C92.3344 208.352 90.7625 208.072 89.4291 207.511C88.1034 206.951 87.0655 206.133 86.3155 205.057C85.5731 203.981 85.1716 202.67 85.1109 201.125H89.2587C89.3193 201.936 89.5693 202.61 90.0087 203.148C90.4481 203.686 91.02 204.087 91.7246 204.352C92.4367 204.617 93.2322 204.75 94.1109 204.75C95.0276 204.75 95.8306 204.614 96.52 204.341C97.217 204.061 97.7625 203.674 98.1564 203.182C98.5503 202.682 98.7511 202.098 98.7587 201.432C98.7511 200.826 98.5731 200.326 98.2246 199.932C97.8761 199.53 97.3875 199.197 96.7587 198.932C96.1375 198.659 95.4102 198.417 94.5769 198.205L91.9291 197.523C90.0125 197.03 88.4973 196.284 87.3837 195.284C86.2776 194.277 85.7246 192.939 85.7246 191.273C85.7246 189.902 86.0958 188.701 86.8382 187.67C87.5882 186.64 88.6072 185.841 89.895 185.273C91.1829 184.697 92.6413 184.409 94.27 184.409C95.9216 184.409 97.3685 184.697 98.6109 185.273C99.8609 185.841 100.842 186.633 101.554 187.648C102.266 188.655 102.634 189.814 102.656 191.125H98.5996ZM109.341 202.523L109.33 197.557H109.989L116.262 190.545H121.069L113.353 199.136H112.5L109.341 202.523ZM105.591 208V184.727H109.705V208H105.591ZM116.546 208L110.864 200.057L113.637 197.159L121.466 208H116.546ZM122.85 208V190.545H126.964V208H122.85ZM124.918 188.068C124.267 188.068 123.706 187.852 123.236 187.42C122.767 186.981 122.532 186.455 122.532 185.841C122.532 185.22 122.767 184.693 123.236 184.261C123.706 183.822 124.267 183.602 124.918 183.602C125.577 183.602 126.138 183.822 126.6 184.261C127.07 184.693 127.305 185.22 127.305 185.841C127.305 186.455 127.07 186.981 126.6 187.42C126.138 187.852 125.577 188.068 124.918 188.068ZM134.347 184.727V208H130.234V184.727H134.347ZM141.731 184.727V208H137.618V184.727H141.731ZM158.797 195.159L155.047 195.568C154.941 195.189 154.755 194.833 154.49 194.5C154.232 194.167 153.884 193.898 153.444 193.693C153.005 193.489 152.467 193.386 151.831 193.386C150.975 193.386 150.255 193.572 149.672 193.943C149.096 194.314 148.812 194.795 148.819 195.386C148.812 195.894 148.998 196.307 149.376 196.625C149.763 196.943 150.399 197.205 151.285 197.409L154.263 198.045C155.914 198.402 157.141 198.966 157.944 199.739C158.755 200.511 159.164 201.523 159.172 202.773C159.164 203.871 158.842 204.841 158.206 205.682C157.577 206.515 156.702 207.167 155.581 207.636C154.46 208.106 153.172 208.341 151.717 208.341C149.581 208.341 147.861 207.894 146.558 207C145.255 206.098 144.479 204.845 144.229 203.239L148.24 202.852C148.422 203.64 148.808 204.235 149.399 204.636C149.99 205.038 150.759 205.239 151.706 205.239C152.683 205.239 153.467 205.038 154.058 204.636C154.657 204.235 154.956 203.739 154.956 203.148C154.956 202.648 154.763 202.235 154.376 201.909C153.998 201.583 153.407 201.333 152.604 201.159L149.626 200.534C147.952 200.186 146.713 199.598 145.91 198.773C145.107 197.939 144.71 196.886 144.717 195.614C144.71 194.538 145.001 193.606 145.592 192.818C146.191 192.023 147.02 191.409 148.081 190.977C149.149 190.538 150.38 190.318 151.774 190.318C153.819 190.318 155.429 190.754 156.604 191.625C157.785 192.496 158.516 193.674 158.797 195.159Z" fill="#FBFBFB"/>
<defs>
<linearGradient id="paint0_linear_513_1314" x1="350.5" y1="-34.5" x2="-57" y2="237.5" gradientUnits="userSpaceOnUse">
<stop stop-color="#FEF76A"/>
<stop offset="1" stop-color="#979A0B"/>
</linearGradient>
<clipPath id="clip0_513_1314">
<rect width="274" height="213" fill="white" transform="translate(46 11)"/>
</clipPath>
</defs>
</svg>
