<svg width="320" height="224" viewBox="0 0 320 224" fill="none" xmlns="http://www.w3.org/2000/svg">
<rect width="320" height="224" rx="20" fill="url(#paint0_linear_513_1315)"/>
<g clip-path="url(#clip0_513_1315)">
<path d="M253.004 116.714H352.082V145.286H253.004V116.714ZM267.158 173.857H352.082V202.429H267.158V173.857ZM238.849 59.5714H352.082V88.1429H238.849V59.5714ZM97.3082 231H238.849V216.714C238.849 177.329 207.102 145.286 168.079 145.286H139.771C100.748 145.286 69 177.329 69 216.714V231H97.3082ZM153.925 131C182.162 131 203.464 109.5 203.464 81C203.464 52.5 182.162 31 153.925 31C125.687 31 104.385 52.5 104.385 81C104.385 109.5 125.687 131 153.925 131Z" fill="#E86FE3" fill-opacity="0.4"/>
</g>
<path d="M33.9659 184.727H38.1818V199.932C38.1818 201.598 37.7879 203.064 37 204.33C36.2197 205.595 35.1212 206.583 33.7045 207.295C32.2879 208 30.6326 208.352 28.7386 208.352C26.8371 208.352 25.178 208 23.7614 207.295C22.3447 206.583 21.2462 205.595 20.4659 204.33C19.6856 203.064 19.2955 201.598 19.2955 199.932V184.727H23.5114V199.58C23.5114 200.549 23.7235 201.413 24.1477 202.17C24.5795 202.928 25.1856 203.523 25.9659 203.955C26.7462 204.379 27.6705 204.591 28.7386 204.591C29.8068 204.591 30.7311 204.379 31.5114 203.955C32.2992 203.523 32.9053 202.928 33.3295 202.17C33.7538 201.413 33.9659 200.549 33.9659 199.58V184.727ZM45.3269 184.727L50.4519 193.25H50.6338L55.7815 184.727H60.5883L53.4178 196.364L60.7019 208H55.8156L50.6338 199.534H50.4519L45.2701 208H40.4065L47.7588 196.364L40.4974 184.727H45.3269ZM72.2561 183.636L64.7561 211.5H61.1539L68.6539 183.636H72.2561ZM88.7734 184.727H92.9893V199.932C92.9893 201.598 92.5954 203.064 91.8075 204.33C91.0272 205.595 89.9287 206.583 88.512 207.295C87.0954 208 85.4401 208.352 83.5461 208.352C81.6446 208.352 79.9855 208 78.5689 207.295C77.1522 206.583 76.0537 205.595 75.2734 204.33C74.4931 203.064 74.103 201.598 74.103 199.932V184.727H78.3189V199.58C78.3189 200.549 78.531 201.413 78.9552 202.17C79.387 202.928 79.9931 203.523 80.7734 203.955C81.5537 204.379 82.478 204.591 83.5461 204.591C84.6143 204.591 85.5386 204.379 86.3189 203.955C87.1067 203.523 87.7128 202.928 88.137 202.17C88.5613 201.413 88.7734 200.549 88.7734 199.58V184.727ZM100.828 184.727V208H96.6117V184.727H100.828ZM119.297 208H111.41V184.727H119.456C121.767 184.727 123.751 185.193 125.41 186.125C127.077 187.049 128.357 188.379 129.251 190.114C130.145 191.848 130.592 193.924 130.592 196.341C130.592 198.765 130.142 200.848 129.24 202.591C128.346 204.333 127.054 205.67 125.365 206.602C123.683 207.534 121.66 208 119.297 208ZM115.626 204.352H119.092C120.713 204.352 122.066 204.057 123.149 203.466C124.232 202.867 125.047 201.977 125.592 200.795C126.138 199.606 126.41 198.121 126.41 196.341C126.41 194.561 126.138 193.083 125.592 191.909C125.047 190.727 124.24 189.845 123.172 189.261C122.111 188.67 120.793 188.375 119.217 188.375H115.626V204.352ZM141.183 208.341C139.433 208.341 137.922 207.977 136.649 207.25C135.384 206.515 134.411 205.477 133.729 204.136C133.047 202.788 132.706 201.201 132.706 199.375C132.706 197.58 133.047 196.004 133.729 194.648C134.418 193.284 135.38 192.223 136.615 191.466C137.85 190.701 139.301 190.318 140.967 190.318C142.043 190.318 143.058 190.492 144.013 190.841C144.975 191.182 145.824 191.712 146.558 192.432C147.301 193.152 147.884 194.068 148.308 195.182C148.733 196.288 148.945 197.606 148.945 199.136V200.398H134.638V197.625H145.002C144.994 196.837 144.824 196.136 144.49 195.523C144.157 194.902 143.691 194.413 143.092 194.057C142.502 193.701 141.812 193.523 141.024 193.523C140.183 193.523 139.445 193.727 138.808 194.136C138.172 194.538 137.676 195.068 137.32 195.727C136.971 196.379 136.793 197.095 136.786 197.875V200.295C136.786 201.311 136.971 202.182 137.342 202.909C137.714 203.629 138.233 204.182 138.899 204.568C139.566 204.947 140.346 205.136 141.24 205.136C141.839 205.136 142.38 205.053 142.865 204.886C143.35 204.712 143.771 204.458 144.127 204.125C144.483 203.792 144.752 203.379 144.933 202.886L148.774 203.318C148.532 204.333 148.07 205.22 147.388 205.977C146.714 206.727 145.85 207.311 144.797 207.727C143.744 208.136 142.539 208.341 141.183 208.341ZM165.26 195.159L161.51 195.568C161.404 195.189 161.219 194.833 160.954 194.5C160.696 194.167 160.347 193.898 159.908 193.693C159.469 193.489 158.931 193.386 158.294 193.386C157.438 193.386 156.719 193.572 156.135 193.943C155.56 194.314 155.275 194.795 155.283 195.386C155.275 195.894 155.461 196.307 155.84 196.625C156.226 196.943 156.863 197.205 157.749 197.409L160.726 198.045C162.378 198.402 163.605 198.966 164.408 199.739C165.219 200.511 165.628 201.523 165.635 202.773C165.628 203.871 165.306 204.841 164.669 205.682C164.041 206.515 163.166 207.167 162.044 207.636C160.923 208.106 159.635 208.341 158.181 208.341C156.044 208.341 154.325 207.894 153.022 207C151.719 206.098 150.942 204.845 150.692 203.239L154.704 202.852C154.885 203.64 155.272 204.235 155.863 204.636C156.454 205.038 157.222 205.239 158.169 205.239C159.147 205.239 159.931 205.038 160.522 204.636C161.12 204.235 161.419 203.739 161.419 203.148C161.419 202.648 161.226 202.235 160.84 201.909C160.461 201.583 159.87 201.333 159.067 201.159L156.09 200.534C154.416 200.186 153.177 199.598 152.374 198.773C151.571 197.939 151.173 196.886 151.181 195.614C151.173 194.538 151.465 193.606 152.056 192.818C152.654 192.023 153.484 191.409 154.544 190.977C155.613 190.538 156.844 190.318 158.238 190.318C160.283 190.318 161.893 190.754 163.067 191.625C164.249 192.496 164.98 193.674 165.26 195.159ZM168.067 208V190.545H172.181V208H168.067ZM170.136 188.068C169.484 188.068 168.923 187.852 168.454 187.42C167.984 186.981 167.749 186.455 167.749 185.841C167.749 185.22 167.984 184.693 168.454 184.261C168.923 183.822 169.484 183.602 170.136 183.602C170.795 183.602 171.355 183.822 171.817 184.261C172.287 184.693 172.522 185.22 172.522 185.841C172.522 186.455 172.287 186.981 171.817 187.42C171.355 187.852 170.795 188.068 170.136 188.068ZM183.042 214.909C181.565 214.909 180.296 214.708 179.235 214.307C178.175 213.913 177.322 213.383 176.678 212.716C176.034 212.049 175.587 211.311 175.337 210.5L179.042 209.602C179.209 209.943 179.451 210.28 179.769 210.614C180.087 210.955 180.516 211.235 181.053 211.455C181.599 211.682 182.284 211.795 183.11 211.795C184.277 211.795 185.243 211.511 186.008 210.943C186.773 210.383 187.156 209.458 187.156 208.17V204.864H186.951C186.739 205.288 186.428 205.723 186.019 206.17C185.618 206.617 185.084 206.992 184.417 207.295C183.758 207.598 182.928 207.75 181.928 207.75C180.587 207.75 179.372 207.436 178.281 206.807C177.197 206.17 176.334 205.223 175.69 203.966C175.053 202.701 174.735 201.117 174.735 199.216C174.735 197.299 175.053 195.682 175.69 194.364C176.334 193.038 177.201 192.034 178.292 191.352C179.383 190.663 180.599 190.318 181.94 190.318C182.962 190.318 183.803 190.492 184.462 190.841C185.129 191.182 185.659 191.595 186.053 192.08C186.447 192.557 186.747 193.008 186.951 193.432H187.178V190.545H191.235V208.284C191.235 209.777 190.879 211.011 190.167 211.989C189.455 212.966 188.481 213.697 187.247 214.182C186.012 214.667 184.61 214.909 183.042 214.909ZM183.076 204.523C183.947 204.523 184.69 204.311 185.303 203.886C185.917 203.462 186.383 202.852 186.701 202.057C187.019 201.261 187.178 200.307 187.178 199.193C187.178 198.095 187.019 197.133 186.701 196.307C186.391 195.481 185.928 194.841 185.315 194.386C184.709 193.924 183.962 193.693 183.076 193.693C182.159 193.693 181.394 193.932 180.781 194.409C180.167 194.886 179.705 195.542 179.394 196.375C179.084 197.201 178.928 198.14 178.928 199.193C178.928 200.261 179.084 201.197 179.394 202C179.712 202.795 180.178 203.417 180.792 203.864C181.413 204.303 182.175 204.523 183.076 204.523ZM198.605 197.773V208H194.491V190.545H198.423V193.511H198.628C199.029 192.534 199.669 191.758 200.548 191.182C201.434 190.606 202.529 190.318 203.832 190.318C205.037 190.318 206.086 190.576 206.98 191.091C207.881 191.606 208.578 192.352 209.071 193.33C209.571 194.307 209.817 195.492 209.809 196.886V208H205.696V197.523C205.696 196.356 205.393 195.443 204.787 194.784C204.188 194.125 203.359 193.795 202.298 193.795C201.578 193.795 200.938 193.955 200.378 194.273C199.824 194.583 199.389 195.034 199.071 195.625C198.76 196.216 198.605 196.932 198.605 197.773Z" fill="#FBFBFB"/>
<defs>
<linearGradient id="paint0_linear_513_1315" x1="350.5" y1="-34.5" x2="-57" y2="237.5" gradientUnits="userSpaceOnUse">
<stop stop-color="#FA4AF3"/>
<stop offset="1" stop-color="#770E59"/>
</linearGradient>
<clipPath id="clip0_513_1315">
<rect width="263" height="206" fill="white" transform="translate(57 18)"/>
</clipPath>
</defs>
</svg>
