<svg width="166" height="88" viewBox="0 0 166 88" fill="none" xmlns="http://www.w3.org/2000/svg">
<path fill-rule="evenodd" clip-rule="evenodd" d="M26.372 41.8265C26.3918 41.9335 26.4113 42.0386 26.4305 42.142L26.4321 42.1403C26.4451 42.2105 26.4593 42.2872 26.4747 42.37C27.4015 47.3598 32.5 74.8093 21.9761 73.4352C11.4611 72.0613 5.9876 51.3368 3.56863 42.1778C3.462 41.774 3.3613 41.3927 3.26636 41.0366C3.23298 40.9114 3.19734 40.7782 3.15968 40.6375C1.37175 33.9566 -4.99199 10.1776 7.84187 10.4278C8.13337 10.4327 8.41667 10.454 8.69835 10.4819C7.84678 9.78751 6.88714 8.76891 6.40076 7.43261C5.41328 4.71908 6.76268 1.73534 6.76268 1.73534C6.76268 1.73534 9.71367 3.15351 10.7012 5.86869C11.0287 6.76938 11.0975 7.69791 11.0451 8.53965C11.6297 6.81196 12.6745 4.6896 14.507 3.15188C18.1458 0.0993578 23.5155 0.505488 23.5155 0.505488C23.5155 0.505488 22.9833 5.86377 19.3429 8.91957C17.1075 10.7946 14.2237 11.3645 12.3273 11.525C21.6101 16.1123 24.9048 33.9033 26.372 41.8265ZM119.085 31.9772C119.917 24.6882 121.01 10.6047 110.429 10.4294H110.43C98.5774 10.2329 96.1652 27.5311 95.3939 36.0254L95.3868 36.1037C95.0055 40.2957 93.0932 61.3232 100.041 61.045C103.896 60.8894 106.13 55.1676 106.892 51.591L107.499 51.5828C107.319 54.8957 107.222 56.5514 107.018 59.8643C109.756 59.843 111.122 59.8757 113.833 60.028L118.211 36.8164C114.701 36.7132 111.177 36.6952 107.666 36.7575C107.46 38.2051 107.357 38.9289 107.149 40.3782C107.641 40.3701 107.89 40.3668 108.376 40.3604L108.38 40.3604L108.392 40.3602C107.689 42.702 106.851 43.9171 105.767 43.945C104.052 43.9892 103.765 41.0693 104.465 35.6226C105.154 30.2512 106.248 27.2838 108.087 27.2625C109.7 27.2445 110.092 29.4291 109.617 33.5739C113.385 32.8796 115.281 32.5635 119.085 31.9772ZM72.1494 11.5201C75.5311 11.5021 78.9144 11.4874 82.2961 11.4743C83.3295 20.2044 84.2629 28.9395 85.0948 37.6909C85.3524 37.6641 85.5135 37.6481 85.7219 37.6275L85.7224 37.6275L85.9578 37.6041C85.7286 28.8887 85.4403 20.1766 85.0932 11.4644C88.637 11.4513 92.1792 11.4415 95.723 11.4333L91.6027 61.027C88.3013 61.5101 86.6538 61.813 83.3868 62.5451C82.6597 53.8952 81.8294 45.26 80.8992 36.6297L80.0329 36.728C80.4604 45.5073 80.8288 54.2882 81.14 63.0724C77.7337 63.9108 76.0437 64.3972 72.716 65.5059C72.5274 47.6313 72.3403 29.7551 72.1532 11.8806L72.1527 11.8317L72.1494 11.5218V11.5201ZM50.8702 11.6184C56.2744 11.6004 61.6785 11.5774 67.0826 11.548V11.5463C68.9708 29.5912 70.6133 47.6558 72.0021 65.745C70.8346 66.1431 69.8849 66.4821 69.0028 66.797L69.0026 66.7971C67.3667 67.3811 65.9636 67.8819 63.8369 68.5224C63.5978 65.2291 63.3538 61.9359 63.1081 58.6426C62.1911 58.8588 61.7325 58.9636 60.8106 59.1634C60.9858 62.5221 61.1643 65.8793 61.3461 69.238C58.2043 70.0963 56.5484 70.4812 53.4762 71.059L53.5871 71.0378C53.3618 70.1322 53.1355 69.2269 52.9082 68.3219C51.9919 49.4288 51.3055 30.5295 50.8702 11.6184ZM52.9082 68.3219C52.9538 69.261 52.9999 70.2002 53.0466 71.1393C53.1929 71.1121 53.336 71.0853 53.4762 71.059C49.999 71.7229 48.2041 71.9849 44.626 72.3511V72.3528C42.6462 65.4076 40.6122 58.4805 38.5243 51.5681L38.2895 51.5786C38.0908 51.5875 37.935 51.5945 37.6875 51.6041C39.2235 58.5869 40.7351 65.5763 42.2187 72.5706C38.7928 72.8424 37.0668 72.9096 33.5983 72.9079C29.9006 52.4934 26.2045 32.0804 22.5084 11.6659C26.211 11.6675 29.9153 11.6642 33.618 11.6593C43.5469 11.8263 48.2517 21.6521 48.8495 30.225C49.2703 36.2449 49.2147 44.9914 41.7684 46.8239C41.8257 47.239 41.8683 47.5501 41.9109 47.8612C41.9534 48.1724 41.996 48.4836 42.0533 48.8988C44.3411 48.7579 45.4809 48.6711 47.7555 48.4664C49.5251 55.072 51.2427 61.689 52.9082 68.3219ZM59.3547 28.7479C59.7281 36.6068 60.1129 44.4657 60.5092 52.3247H60.5109C61.3543 52.1707 61.7751 52.0905 62.6169 51.9267C62.024 44.1628 61.4198 36.4005 60.8056 28.6398C60.2259 28.684 59.9361 28.7053 59.3547 28.7479ZM35.6683 31.6579L37.1094 41.2298V41.2314C37.5221 41.3117 37.956 41.2969 38.2082 41.2871C40.0538 41.2183 40.7203 39.4726 40.2798 36.2662C39.8524 33.1547 38.6848 31.4892 36.7769 31.5367L36.7657 31.537H36.7657C36.5022 31.5436 36.0606 31.5546 35.6683 31.6579ZM125.046 11.4137C130.956 11.4219 136.868 11.435 142.778 11.453C141.509 17.4663 140.222 23.4747 138.92 29.4815C135.787 29.2637 134.214 29.172 131.055 29.0197L130.904 29.6603L130.901 29.6739C130.555 31.1468 130.337 32.0743 129.948 33.7262C132.17 33.8622 133.279 33.9408 135.484 34.1209C135.163 35.3672 134.93 36.2699 134.687 37.2077C134.49 37.9703 134.287 38.7562 134.025 39.7691C131.882 39.5463 130.804 39.4497 128.641 39.2794C128.446 40.111 128.299 40.7347 128.152 41.358C128.005 41.9842 127.858 42.61 127.661 43.4455C130.606 43.7141 132.068 43.8779 134.969 44.2643C133.103 50.2138 131.253 56.1682 129.417 62.1259C124.825 61.1253 120.16 60.4669 115.473 60.1312C118.663 43.891 121.853 27.6523 125.045 11.412L125.046 11.4137Z" fill="url(#paint0_linear_632_4714)"/>
<path d="M72.8837 86.8884V70.1513H80.7852V72.3252H74.7852V77.4247H80.3729V79.5904H74.7852V84.7145H80.859V86.8884H72.8837Z" fill="url(#paint1_linear_632_4714)"/>
<path d="M83.9069 70.1513L87.4146 83.7829H87.5561L91.0638 70.1513H93.1192L88.5838 86.8884H86.3869L81.8515 70.1513H83.9069Z" fill="url(#paint2_linear_632_4714)"/>
<path d="M104.741 78.5198C104.741 80.3069 104.495 81.8433 104.002 83.1291C103.51 84.4094 102.835 85.3956 101.978 86.0875C101.124 86.774 100.154 87.1172 99.067 87.1172C97.9757 87.1172 97.0013 86.774 96.1439 86.0875C95.2906 85.3956 94.6178 84.4067 94.1254 83.1209C93.6331 81.8351 93.387 80.3014 93.387 78.5198C93.387 76.7328 93.6331 75.1991 94.1254 73.9188C94.6178 72.633 95.2906 71.6469 96.1439 70.9604C97.0013 70.2685 97.9757 69.9225 99.067 69.9225C100.154 69.9225 101.124 70.2685 101.978 70.9604C102.835 71.6469 103.51 72.633 104.002 73.9188C104.495 75.1991 104.741 76.7328 104.741 78.5198ZM102.858 78.5198C102.858 77.1578 102.692 76.0109 102.359 75.0793C102.031 74.1422 101.58 73.4339 101.005 72.9544C100.435 72.4696 99.789 72.2271 99.067 72.2271C98.3408 72.2271 97.6926 72.4696 97.1224 72.9544C96.5521 73.4339 96.1008 74.1422 95.7685 75.0793C95.4403 76.0109 95.2762 77.1578 95.2762 78.5198C95.2762 79.8819 95.4403 81.0315 95.7685 81.9686C96.1008 82.9003 96.5521 83.6085 97.1224 84.0934C97.6926 84.5729 98.3408 84.8126 99.067 84.8126C99.789 84.8126 100.435 84.5729 101.005 84.0934C101.58 83.6085 102.031 82.9003 102.359 81.9686C102.692 81.0315 102.858 79.8819 102.858 78.5198Z" fill="url(#paint3_linear_632_4714)"/>
<path d="M106.592 86.8884V70.1513H108.493V84.7145H114.204V86.8884H106.592Z" fill="url(#paint4_linear_632_4714)"/>
<path d="M123.958 70.1513H125.866V81.1595C125.866 82.3309 125.659 83.3688 125.244 84.2732C124.83 85.1722 124.247 85.8805 123.496 86.398C122.746 86.9102 121.866 87.1662 120.856 87.1662C119.851 87.1662 118.973 86.9102 118.223 86.398C117.472 85.8805 116.889 85.1722 116.475 84.2732C116.061 83.3688 115.853 82.3309 115.853 81.1595V70.1513H117.755V80.9552C117.755 81.7125 117.88 82.3854 118.13 82.9738C118.385 83.5622 118.744 84.0253 119.207 84.3631C119.671 84.6955 120.221 84.8616 120.856 84.8616C121.496 84.8616 122.048 84.6955 122.512 84.3631C122.98 84.0253 123.336 83.5622 123.583 82.9738C123.833 82.3854 123.958 81.7125 123.958 80.9552V70.1513Z" fill="url(#paint5_linear_632_4714)"/>
<path d="M127.489 72.3252V70.1513H137.243V72.3252H133.31V86.8884H131.415V72.3252H127.489Z" fill="url(#paint6_linear_632_4714)"/>
<path d="M140.78 70.1513V86.8884H138.878V70.1513H140.78Z" fill="url(#paint7_linear_632_4714)"/>
<path d="M153.977 78.5198C153.977 80.3069 153.731 81.8433 153.238 83.1291C152.746 84.4094 152.071 85.3956 151.214 86.0875C150.36 86.774 149.39 87.1172 148.303 87.1172C147.212 87.1172 146.237 86.774 145.38 86.0875C144.527 85.3956 143.854 84.4067 143.361 83.1209C142.869 81.8351 142.623 80.3014 142.623 78.5198C142.623 76.7328 142.869 75.1991 143.361 73.9188C143.854 72.633 144.527 71.6469 145.38 70.9604C146.237 70.2685 147.212 69.9225 148.303 69.9225C149.39 69.9225 150.36 70.2685 151.214 70.9604C152.071 71.6469 152.746 72.633 153.238 73.9188C153.731 75.1991 153.977 76.7328 153.977 78.5198ZM152.094 78.5198C152.094 77.1578 151.928 76.0109 151.595 75.0793C151.267 74.1422 150.816 73.4339 150.241 72.9544C149.671 72.4696 149.025 72.2271 148.303 72.2271C147.577 72.2271 146.929 72.4696 146.358 72.9544C145.788 73.4339 145.337 74.1422 145.005 75.0793C144.676 76.0109 144.512 77.1578 144.512 78.5198C144.512 79.8819 144.676 81.0315 145.005 81.9686C145.337 82.9003 145.788 83.6085 146.358 84.0934C146.929 84.5729 147.577 84.8126 148.303 84.8126C149.025 84.8126 149.671 84.5729 150.241 84.0934C150.816 83.6085 151.267 82.9003 151.595 81.9686C151.928 81.0315 152.094 79.8819 152.094 78.5198Z" fill="url(#paint8_linear_632_4714)"/>
<path d="M166 70.1513V86.8884H164.252L157.846 74.6134H157.729V86.8884H155.828V70.1513H157.588L164 82.4426H164.117V70.1513H166Z" fill="url(#paint9_linear_632_4714)"/>
<defs>
<linearGradient id="paint0_linear_632_4714" x1="139.804" y1="1.98457" x2="37.6031" y2="104.892" gradientUnits="userSpaceOnUse">
<stop stop-color="#FB8BCE"/>
<stop offset="0.253125" stop-color="#FC4AB5"/>
<stop offset="0.560417" stop-color="#871CD3"/>
<stop offset="1" stop-color="#00C09B"/>
</linearGradient>
<linearGradient id="paint1_linear_632_4714" x1="164.06" y1="70.2761" x2="148.681" y2="113.029" gradientUnits="userSpaceOnUse">
<stop stop-color="#FB8BCE"/>
<stop offset="0.253125" stop-color="#FC4AB5"/>
<stop offset="0.560417" stop-color="#871CD3"/>
<stop offset="1" stop-color="#00C09B"/>
</linearGradient>
<linearGradient id="paint2_linear_632_4714" x1="164.06" y1="70.2761" x2="148.681" y2="113.029" gradientUnits="userSpaceOnUse">
<stop stop-color="#FB8BCE"/>
<stop offset="0.253125" stop-color="#FC4AB5"/>
<stop offset="0.560417" stop-color="#871CD3"/>
<stop offset="1" stop-color="#00C09B"/>
</linearGradient>
<linearGradient id="paint3_linear_632_4714" x1="164.06" y1="70.2761" x2="148.681" y2="113.029" gradientUnits="userSpaceOnUse">
<stop stop-color="#FB8BCE"/>
<stop offset="0.253125" stop-color="#FC4AB5"/>
<stop offset="0.560417" stop-color="#871CD3"/>
<stop offset="1" stop-color="#00C09B"/>
</linearGradient>
<linearGradient id="paint4_linear_632_4714" x1="164.06" y1="70.2761" x2="148.681" y2="113.029" gradientUnits="userSpaceOnUse">
<stop stop-color="#FB8BCE"/>
<stop offset="0.253125" stop-color="#FC4AB5"/>
<stop offset="0.560417" stop-color="#871CD3"/>
<stop offset="1" stop-color="#00C09B"/>
</linearGradient>
<linearGradient id="paint5_linear_632_4714" x1="164.06" y1="70.2761" x2="148.681" y2="113.029" gradientUnits="userSpaceOnUse">
<stop stop-color="#FB8BCE"/>
<stop offset="0.253125" stop-color="#FC4AB5"/>
<stop offset="0.560417" stop-color="#871CD3"/>
<stop offset="1" stop-color="#00C09B"/>
</linearGradient>
<linearGradient id="paint6_linear_632_4714" x1="164.06" y1="70.2761" x2="148.681" y2="113.029" gradientUnits="userSpaceOnUse">
<stop stop-color="#FB8BCE"/>
<stop offset="0.253125" stop-color="#FC4AB5"/>
<stop offset="0.560417" stop-color="#871CD3"/>
<stop offset="1" stop-color="#00C09B"/>
</linearGradient>
<linearGradient id="paint7_linear_632_4714" x1="164.06" y1="70.2761" x2="148.681" y2="113.029" gradientUnits="userSpaceOnUse">
<stop stop-color="#FB8BCE"/>
<stop offset="0.253125" stop-color="#FC4AB5"/>
<stop offset="0.560417" stop-color="#871CD3"/>
<stop offset="1" stop-color="#00C09B"/>
</linearGradient>
<linearGradient id="paint8_linear_632_4714" x1="164.06" y1="70.2761" x2="148.681" y2="113.029" gradientUnits="userSpaceOnUse">
<stop stop-color="#FB8BCE"/>
<stop offset="0.253125" stop-color="#FC4AB5"/>
<stop offset="0.560417" stop-color="#871CD3"/>
<stop offset="1" stop-color="#00C09B"/>
</linearGradient>
<linearGradient id="paint9_linear_632_4714" x1="164.06" y1="70.2761" x2="148.681" y2="113.029" gradientUnits="userSpaceOnUse">
<stop stop-color="#FB8BCE"/>
<stop offset="0.253125" stop-color="#FC4AB5"/>
<stop offset="0.560417" stop-color="#871CD3"/>
<stop offset="1" stop-color="#00C09B"/>
</linearGradient>
</defs>
</svg>
